<?xml version="1.0" encoding="utf-8"?>
<!-- Generator: Adobe Illustrator 27.1.0, SVG Export Plug-In . SVG Version: 6.00 Build 0)  -->
<svg version="1.1" id="Ebene_1" xmlns="http://www.w3.org/2000/svg" xmlns:xlink="http://www.w3.org/1999/xlink" x="0px" y="0px"
	 viewBox="0 0 1986.81 278.24" style="enable-background:new 0 0 1986.81 278.24;" xml:space="preserve">
<style type="text/css">
	.st0{fill:#8EBAE5;}
	.st1{fill:#00549F;}
	.st2{fill:#FFFFFF;}
	.st3{fill:#275AAD;}
	.st4{fill:#BEDAF0;}
</style>
<g>
	<path class="st0" d="M1746.15,167.92h6.84c6.64,0,10.06,3.42,10.06,10.06c0,7.85-3.82,10.87-10.87,10.87h-6.04V167.92
		L1746.15,167.92z M1731.46,229.5h14.69v-30.59h7.65c6.04,0,8.45,3.42,8.65,9.06l0.4,13.89c0.2,2.82,0.4,5.63,1.81,7.65h15.9v-0.6
		c-2.82-1.41-3.22-5.43-3.22-13.08c-0.2-15.09-1.81-20.73-11.67-21.93v-0.2c8.05-1.81,12.07-8.25,12.07-17.91
		c0-12.27-7.45-18.51-19.32-18.51h-26.97V229.5"/>
	<path class="st0" d="M1516.75,157.25v50.31c0,19.32,11.07,23.34,22.94,23.34s23.14-4.83,23.14-23.34v-50.31h-14.69v50.31
		c0,7.24-1.61,12.68-8.45,12.68s-8.45-5.43-8.45-12.68v-50.31H1516.75"/>
	<polygon class="st0" points="1566.45,157.25 1566.45,229.5 1579.73,229.5 1579.73,178.79 1579.93,178.79 1597.64,229.5 
		1614.34,229.5 1614.34,157.25 1601.06,157.25 1601.06,206.76 1600.86,206.76 1583.15,157.25 1566.45,157.25 	"/>
	<polygon class="st0" points="1618.17,229.5 1632.66,229.5 1632.66,157.25 1618.17,157.25 1618.17,229.5 	"/>
	<polygon class="st0" points="1633.66,157.25 1650.16,229.5 1668.88,229.5 1685.58,157.25 1670.49,157.25 1659.82,210.58 
		1659.42,210.58 1649.16,157.25 1633.66,157.25 	"/>
	<polygon class="st0" points="1686.79,157.25 1686.79,229.5 1728.24,229.5 1728.24,217.62 1701.48,217.62 1701.48,198.1 
		1725.83,198.1 1725.83,186.23 1701.48,186.23 1701.48,169.13 1727.24,169.13 1727.24,157.25 1686.79,157.25 	"/>
	<path class="st0" d="M1778.95,206.96v2.82c0,13.48,6.44,21.13,22.94,21.13c15.7,0,24.95-6.84,24.95-22.14
		c0-8.85-2.82-14.49-13.68-19.12l-11.27-4.83c-6.04-2.62-7.45-5.43-7.45-9.86c0-4.23,1.81-8.45,8.25-8.45
		c5.63,0,7.85,4.02,7.85,10.67h14.09v-2.01c0-13.89-9.46-19.32-22.34-19.32c-13.88,0-22.34,7.04-22.34,21.13
		c0,12.07,5.84,17.51,18.92,21.93c9.46,3.42,12.88,5.84,12.88,12.28c0,6.24-4.23,9.06-8.65,9.06c-7.65,0-9.66-4.43-9.66-11.27v-2.01
		H1778.95"/>
	<polygon class="st0" points="1828.86,229.5 1843.35,229.5 1843.35,157.25 1828.86,157.25 1828.86,229.5 	"/>
	<polyline class="st0" points="1919.21,157.25 1908.95,185.23 1908.75,185.23 1899.29,157.25 1845.36,157.25 1845.36,169.13 
		1861.05,169.13 1861.05,229.5 1875.74,229.5 1875.74,169.13 1888.02,169.13 1901.5,201.12 1901.5,229.5 1916.19,229.5 
		1916.19,201.12 1934.91,157.25 1919.01,157.25 	"/>
	<path class="st1" d="M1388.56,150.61h-24.15V77.97h39.64c10.67,0,19.92,7.04,23.14,16.3c2.62,8.45,0.4,17.71-6.04,24.35
		c0.8,2.21,1.61,4.02,2.41,6.04c1.81,4.23,3.42,8.25,5.23,12.07l5.63,13.89h-24.35c0,0-0.2-0.6-0.4-0.8
		c-1.01-2.21-2.01-4.43-2.82-6.64l-6.04-13.89c-2.21-5.63-4.63-11.07-7.04-16.7c3.02,0,5.23,0.6,8.05-0.8
		c2.01-1.01,4.83-3.42,5.03-8.05c-0.2-2.21-0.8-4.02-2.21-5.84c-1.61-1.61-3.82-2.82-6.64-3.02h-9.46V150.61"/>
	<path class="st1" d="M1640.91,77.97v72.64h-24.15v-29.58h-16.9v29.58c-4.43,0-9.26,0-13.48,0h-10.67V94.87h-16.9v55.74h-24.15
		V94.87h-17.1v55.74h-24.75c-4.43-10.46-9.06-20.93-13.28-31.39c-0.4-2.21-1.01-4.43-1.61-6.64v38.03h-24.95
		c-4.83-11.47-9.66-22.74-14.49-34.41c-1.81-4.02-3.22-7.24-4.83-11.47l-0.4-0.6l-3.82-9.06l-5.43-12.88
		c-0.4-1.41-1.21-2.62-1.81-4.23h24.95c5.03,12.48,10.26,24.75,15.7,37.03v0.2c-0.2-1.41-0.6-3.22-0.81-4.43V89.04
		c0-3.42,0-7.45,0-11.07h24.95c0.2,0.8,0.4,1.21,0.6,2.01c3.02,6.84,5.84,13.68,8.65,20.32l6.64,14.89c-0.2-1.61-0.6-3.02-0.8-4.43
		v-32.8h97.8v26.36h16.9V77.97H1640.91"/>
	<path class="st0" d="M1727.03,77.97h-18.11l-15.09,57.35l-15.09-57.35h-18.11l-19.32,72.64h15.29l3.42-15.29h19.32l3.22,15.29
		h22.54l3.22-15.29h19.32l3.42,15.29h15.29L1727.03,77.97L1727.03,77.97z M1662.44,123.25l7.04-32.6h0.2l7.04,32.6H1662.44
		L1662.44,123.25z M1710.94,123.25l7.04-32.6h0.2l7.04,32.6H1710.94"/>
	<path class="st0" d="M1789.82,102.72c0-10.46-1.41-25.76-22.34-25.76c-21.73,0-24.55,15.7-24.55,37.63
		c0,21.93,2.82,37.43,24.55,37.43c19.12,0,22.94-13.28,22.94-28.98h-14.49c0,15.7-3.82,18.31-9.06,18.31
		c-6.44,0-9.46-4.02-9.46-25.76c0-20.53,1.81-27.77,9.26-27.77c6.44,0,8.65,4.43,8.65,14.89H1789.82"/>
	<polygon class="st0" points="1793.44,150.61 1807.93,150.61 1807.93,118.42 1825.03,118.42 1825.03,150.61 1839.72,150.61 
		1839.72,77.97 1825.03,77.97 1825.03,105.74 1807.93,105.74 1807.93,77.97 1793.44,77.97 1793.44,150.61 	"/>
	<polygon class="st0" points="1842.94,77.97 1842.94,150.61 1884.4,150.61 1884.4,138.54 1857.63,138.54 1857.63,119.02 
		1881.98,119.02 1881.98,107.15 1857.63,107.15 1857.63,90.04 1883.39,90.04 1883.39,77.97 1842.94,77.97 	"/>
	<polygon class="st0" points="1886.61,77.97 1886.61,150.61 1900.09,150.61 1900.09,99.9 1900.3,99.9 1918.2,150.61 1934.91,150.61 
		1934.91,77.97 1921.42,77.97 1921.42,127.67 1921.22,127.67 1903.51,77.97 1886.61,77.97 	"/>
	<polygon class="st1" points="1315.31,230.1 1318.53,230.1 1318.53,77.97 1315.31,77.97 1315.31,230.1 	"/>
	<path class="st1" d="M1095.97,210.38h0.2l2.21,10.67h-4.63L1095.97,210.38L1095.97,210.38z M1086.71,230.1h5.03l1.21-5.03h6.24
		l1.21,5.03h5.03l-6.44-23.95h-5.84L1086.71,230.1L1086.71,230.1z M1107.44,230.1h4.63v-12.07c0-2.01,0.8-2.82,2.41-2.82
		c0.8,0,1.21,0,1.61,0.4c0.2,0.4,0.4,1.01,0.4,2.01v12.48h4.63v-13.48c0-1.81-0.4-3.02-1.21-3.82c-0.8-0.8-1.81-1.21-3.42-1.21
		c-1.01,0-1.81,0.2-2.62,0.6c-0.8,0.4-1.41,1.01-2.01,2.01l0,0v-2.21h-4.43V230.1L1107.44,230.1z M1125.55,211.99h-2.41v3.22h2.41
		v10.26c0,1.01,0,1.81,0.2,2.41c0,0.6,0.2,1.01,0.6,1.41c0.2,0.4,0.6,0.6,1.21,0.8c0.6,0,1.41,0.2,2.21,0.2c0.6,0,1.01,0,1.61,0
		c0.4-0.2,1.01-0.2,1.41-0.2v-3.22c-0.2,0-0.2,0-0.4,0c-0.2,0-0.4,0-0.6,0c-0.6,0-1.01-0.2-1.41-0.4c-0.2-0.4-0.2-0.8-0.2-1.61
		v-9.66h2.62v-3.22h-2.62v-5.03h-4.63V211.99L1125.55,211.99z M1134.81,230.1h4.63v-10.87c0-0.6,0.2-1.21,0.4-1.61
		c0.2-0.4,0.4-0.6,0.8-1.01c0.4-0.2,0.6-0.4,1.01-0.4c0.4-0.2,0.8-0.2,1.21-0.2s0.6,0,0.8,0c0.2,0,0.4,0,0.8,0v-4.43
		c-0.2,0-0.4,0-0.6,0c0,0-0.2,0-0.4,0c-0.8,0-1.61,0.2-2.41,0.8c-0.6,0.4-1.21,1.21-1.61,2.01h-0.2v-2.41h-4.43V230.1L1134.81,230.1
		z M1146.48,209.78h4.63v-3.82h-4.63V209.78L1146.48,209.78z M1146.48,230.1h4.63v-18.11h-4.63V230.1L1146.48,230.1z
		 M1167.81,221.85v-1.21c0-1.41-0.2-2.62-0.4-3.62c0-1.21-0.4-2.21-1.01-3.02c-0.4-0.8-1.01-1.41-2.01-1.81
		c-0.8-0.4-1.81-0.6-3.22-0.6c-1.61,0-2.82,0.2-3.82,0.8c-0.8,0.4-1.61,1.21-2.21,2.01c-0.4,0.8-0.8,1.81-1.01,3.02
		c0,1.01-0.2,2.21-0.2,3.42c0,1.21,0,2.21,0.2,3.42c0,1.21,0.4,2.21,0.8,3.22c0.4,0.8,1.21,1.61,2.01,2.21
		c1.01,0.6,2.41,0.8,4.02,0.8c2.21,0,3.82-0.6,4.83-1.61c1.01-1.21,1.61-2.82,1.61-4.83h-4.02c-0.2,1.01-0.4,2.01-0.8,2.41
		c-0.4,0.6-1.01,1.01-1.61,1.01c-0.6,0-0.8-0.2-1.21-0.4c-0.2-0.2-0.4-0.6-0.6-1.01c-0.2-0.4-0.4-0.8-0.4-1.41
		c-0.2-0.4-0.2-1.01-0.2-1.41v-1.41H1167.81L1167.81,221.85z M1158.55,219.03v-0.8c0-0.4,0-0.8,0.2-1.21c0-0.4,0.2-0.8,0.4-1.21
		c0.2-0.2,0.4-0.6,0.6-0.8c0.4-0.2,0.8-0.2,1.21-0.2s0.8,0,1.21,0.2c0.2,0.2,0.4,0.4,0.6,0.8c0.2,0.4,0.4,0.8,0.4,1.41
		c0,0.4,0.2,1.01,0.2,1.81H1158.55L1158.55,219.03z M1170.43,230.1h4.43v-2.01l0,0c0.6,1.01,1.21,1.61,1.81,1.81
		c0.6,0.4,1.41,0.6,2.41,0.6c1.81,0,3.22-0.8,4.23-2.21c0.8-1.41,1.21-3.82,1.21-7.24s-0.4-5.84-1.21-7.24
		c-1.01-1.41-2.41-2.21-4.23-2.21c-1.01,0-1.61,0.2-2.21,0.6c-0.6,0.2-1.21,0.8-1.81,1.61l0,0v-7.65h-4.63V230.1L1170.43,230.1z
		 M1175.46,216.62c0.4-1.01,1.01-1.41,2.01-1.41c1.01,0,1.81,0.4,2.01,1.41c0.4,1.01,0.4,2.41,0.4,4.43s0,3.42-0.4,4.43
		c-0.2,1.01-1.01,1.61-2.01,1.61c-1.01,0-1.61-0.6-2.01-1.61c-0.2-1.01-0.4-2.42-0.4-4.43S1175.26,217.62,1175.46,216.62
		 M1200.61,221.85v-1.21c0-1.41,0-2.62-0.2-3.62c-0.2-1.21-0.6-2.21-1.01-3.02c-0.6-0.8-1.21-1.41-2.01-1.81
		c-1.01-0.4-2.01-0.6-3.42-0.6c-1.41,0-2.82,0.2-3.62,0.8c-1.01,0.4-1.81,1.21-2.21,2.01c-0.6,0.8-0.8,1.81-1.01,3.02
		c-0.2,1.01-0.2,2.21-0.2,3.42c0,1.21,0,2.21,0,3.42c0.2,1.21,0.4,2.21,0.8,3.22c0.6,0.8,1.21,1.61,2.21,2.21
		c0.8,0.6,2.21,0.8,3.82,0.8c2.21,0,3.82-0.6,4.83-1.61c1.21-1.21,1.61-2.82,1.81-4.83h-4.23c-0.2,1.01-0.4,2.01-0.8,2.41
		c-0.2,0.6-0.8,1.01-1.61,1.01c-0.4,0-0.8-0.2-1.01-0.4c-0.4-0.2-0.6-0.6-0.8-1.01c-0.2-0.4-0.2-0.8-0.4-1.41c0-0.4,0-1.01,0-1.41
		v-1.41H1200.61L1200.61,221.85z M1191.56,219.03v-0.8c0-0.4,0-0.8,0-1.21c0.2-0.4,0.2-0.8,0.4-1.21c0.2-0.2,0.4-0.6,0.8-0.8
		c0.2-0.2,0.6-0.2,1.01-0.2c0.6,0,1.01,0,1.21,0.2c0.4,0.2,0.6,0.4,0.8,0.8c0.2,0.4,0.2,0.8,0.2,1.41c0.2,0.4,0.2,1.01,0.2,1.81
		H1191.56"/>
	<path class="st1" d="M1088.32,168.12v23.95h13.88v-4.02h-9.06v-6.44h8.05v-3.82h-8.05v-5.63h8.65v-4.02H1088.32L1088.32,168.12z
		 M1104.83,192.07h4.63v-23.95h-4.63V192.07L1104.83,192.07z M1126.16,183.82v-1.21c0-1.41-0.2-2.62-0.4-3.62
		c-0.2-1.21-0.4-2.21-1.01-3.02c-0.4-0.8-1.21-1.41-2.01-1.81c-0.8-0.4-2.01-0.6-3.22-0.6c-1.61,0-2.82,0.2-3.82,0.8
		c-1.01,0.4-1.61,1.21-2.21,2.01c-0.4,0.8-0.8,1.81-1.01,3.02c-0.2,1.01-0.2,2.21-0.2,3.42c0,1.21,0,2.21,0.2,3.42
		c0,1.21,0.4,2.21,0.81,3.22c0.4,0.8,1.21,1.61,2.01,2.21c1.01,0.6,2.21,0.8,4.02,0.8c2.21,0,3.82-0.6,4.83-1.61
		c1.01-1.21,1.61-2.82,1.61-4.83h-4.02c-0.2,1.01-0.4,2.01-0.8,2.41c-0.4,0.6-1.01,1.01-1.81,1.01c-0.4,0-0.8-0.2-1.01-0.4
		c-0.2-0.2-0.6-0.6-0.6-1.01c-0.2-0.4-0.4-0.8-0.4-1.41c-0.2-0.4-0.2-1.01-0.2-1.41v-1.41H1126.16L1126.16,183.82z M1116.9,181v-0.8
		c0-0.4,0-0.8,0.2-1.21c0-0.4,0.2-0.8,0.4-1.21c0-0.2,0.4-0.6,0.6-0.8c0.4-0.2,0.8-0.2,1.21-0.2s0.8,0,1.21,0.2
		c0.2,0.2,0.4,0.4,0.6,0.8c0.2,0.4,0.4,0.81,0.4,1.41c0,0.4,0,1.01,0.2,1.81H1116.9L1116.9,181z M1128.77,168.12v23.95h4.63v-5.23
		l1.61-2.21l4.02,7.45h5.03l-6.04-10.87l5.23-7.24h-5.03l-4.63,6.84h-0.2v-12.68H1128.77L1128.77,168.12z M1147.29,173.96h-2.41
		v3.22h2.41v10.26c0,1.01,0,1.81,0.2,2.42c0,0.6,0.2,1.01,0.6,1.41c0.2,0.4,0.6,0.6,1.21,0.8c0.6,0.2,1.21,0.2,2.21,0.2
		c0.6,0,1.01,0,1.61,0c0.4-0.2,0.8-0.2,1.41-0.2v-3.22c-0.2,0-0.4,0-0.4,0c-0.2,0-0.4,0-0.6,0c-0.6,0-1.21-0.2-1.41-0.4
		c-0.2-0.4-0.2-0.8-0.2-1.61v-9.66h2.62v-3.22h-2.62v-5.03h-4.63V173.96L1147.29,173.96z M1156.54,192.07h4.63V181.2
		c0-0.6,0.2-1.01,0.4-1.61c0.2-0.4,0.4-0.6,0.8-1.01c0.2-0.2,0.6-0.4,1.01-0.4c0.4-0.2,0.8-0.2,1.21-0.2c0.2,0,0.6,0,0.8,0
		c0.2,0,0.4,0,0.6,0v-4.43c0,0-0.2,0-0.4,0c0,0-0.2,0-0.4,0c-1.01,0-1.81,0.2-2.41,0.8c-0.6,0.4-1.21,1.21-1.61,2.01h-0.2v-2.41
		h-4.43V192.07L1156.54,192.07z M1168.21,171.74h4.63v-3.82h-4.63V171.74L1168.21,171.74z M1168.21,192.07h4.63v-18.11h-4.63V192.07
		L1168.21,192.07z M1175.46,186.23v0.6c0,0.8,0.2,1.61,0.4,2.21c0.2,0.8,0.6,1.41,1.01,1.81c0.6,0.6,1.21,1.01,2.01,1.21
		c0.8,0.4,2.01,0.4,3.22,0.4c1.01,0,2.01,0,2.82-0.4c0.81-0.2,1.41-0.4,2.01-1.01c0.6-0.4,1.21-1.01,1.41-1.81
		c0.4-0.6,0.6-1.41,0.6-2.41c0-1.41-0.4-2.41-1.01-3.22c-0.6-0.81-1.61-1.41-3.02-2.01l-2.82-0.8c-0.8-0.4-1.21-0.6-1.61-1.01
		c-0.2-0.4-0.4-0.8-0.4-1.21c0-0.6,0.2-1.01,0.6-1.41c0.4-0.4,1.01-0.4,1.61-0.4c0.8,0,1.21,0.2,1.61,0.6c0.2,0.4,0.4,1.01,0.4,2.01
		h4.23v-0.8c0-1.61-0.6-2.82-1.61-3.62c-1.01-1.01-2.41-1.41-4.63-1.41c-1.21,0-2.21,0.2-3.02,0.4c-0.8,0.4-1.61,0.6-2.01,1.21
		c-0.6,0.4-1.01,1.01-1.21,1.61c-0.2,0.8-0.4,1.41-0.4,2.21c0,1.21,0.4,2.21,1.01,3.02c0.6,1.01,1.61,1.61,2.82,2.01l3.22,1.21
		c0.6,0.2,1.01,0.4,1.21,0.6c0.4,0.4,0.6,0.8,0.6,1.41c0,0.6-0.2,1.21-0.6,1.61c-0.6,0.4-1.01,0.6-1.81,0.6
		c-0.8,0-1.41-0.4-1.81-0.8s-0.6-1.21-0.6-1.81v-0.6H1175.46L1175.46,186.23z M1204.64,180.6c0-2.21-0.6-4.02-1.61-5.23
		c-1.21-1.21-2.82-1.81-4.83-1.81c-1.21,0-2.01,0.2-3.02,0.4c-0.8,0.4-1.61,0.8-2.21,1.61c-0.8,0.6-1.21,1.61-1.61,2.82
		s-0.6,2.82-0.6,4.63c0,1.81,0.2,3.42,0.6,4.63c0.2,1.21,0.6,2.21,1.21,2.82c0.6,0.8,1.21,1.21,2.21,1.61c0.8,0.2,1.81,0.4,3.02,0.4
		c2.41,0,4.23-0.6,5.23-1.81c1.01-1.41,1.61-3.22,1.61-5.43h-4.43c0,1.41-0.2,2.41-0.6,3.22c-0.4,0.6-0.8,1.01-1.61,1.01
		c-0.6,0-1.01-0.2-1.21-0.4c-0.4-0.2-0.6-0.6-0.8-1.21c-0.2-0.4-0.4-1.21-0.4-2.01c0-0.6-0.2-1.61-0.2-2.82
		c0-1.01,0.2-1.81,0.2-2.62s0.2-1.41,0.4-2.01c0.2-0.4,0.4-0.8,0.8-1.21c0.2-0.2,0.8-0.2,1.41-0.2c0.4,0,0.6,0,1.01,0.2
		c0.2,0.2,0.4,0.6,0.6,0.8c0.2,0.4,0.2,0.8,0.4,1.21c0,0.4,0,0.8,0,1.41H1204.64L1204.64,180.6z M1207.25,192.07h4.63v-12.07
		c0-1.81,0.8-2.82,2.41-2.82c0.8,0,1.21,0,1.61,0.4c0.2,0.4,0.4,1.01,0.4,2.01v12.48h4.63v-13.48c0-1.81-0.4-3.02-1.21-3.82
		s-1.81-1.21-3.42-1.21c-2.01,0-3.42,0.8-4.43,2.21l0,0v-7.65h-4.63V192.07L1207.25,192.07z M1237.44,183.82v-1.21
		c0-1.41,0-2.62-0.2-3.62c-0.2-1.21-0.6-2.21-1.01-3.02c-0.6-0.8-1.21-1.41-2.01-1.81c-1.01-0.4-2.01-0.6-3.42-0.6
		c-1.61,0-2.82,0.2-3.62,0.8c-1.01,0.4-1.81,1.21-2.21,2.01c-0.6,0.8-0.8,1.81-1.01,3.02c-0.2,1.01-0.2,2.21-0.2,3.42
		c0,1.21,0,2.21,0,3.42c0.2,1.21,0.4,2.21,0.8,3.22c0.6,0.8,1.21,1.61,2.21,2.21c0.81,0.6,2.21,0.8,3.82,0.8
		c2.21,0,3.82-0.6,4.83-1.61c1.01-1.21,1.61-2.82,1.81-4.83h-4.23c-0.2,1.01-0.4,2.01-0.8,2.41c-0.2,0.6-0.8,1.01-1.61,1.01
		c-0.4,0-0.8-0.2-1.01-0.4c-0.4-0.2-0.6-0.6-0.8-1.01c-0.2-0.4-0.2-0.8-0.4-1.41c0-0.4,0-1.01,0-1.41v-1.41H1237.44L1237.44,183.82z
		 M1228.38,181v-0.8c0-0.4,0-0.8,0-1.21c0.2-0.4,0.2-0.8,0.4-1.21c0.2-0.2,0.4-0.6,0.8-0.8c0.2-0.2,0.6-0.2,1.01-0.2
		c0.6,0,1.01,0,1.21,0.2c0.4,0.2,0.6,0.4,0.8,0.8c0,0.4,0.2,0.81,0.2,1.41c0.2,0.4,0.2,1.01,0.2,1.81H1228.38"/>
	<path class="st1" d="M1089.33,135.92h-2.41v3.22h2.41v10.26c0,1.01,0,1.81,0.2,2.41c0,0.6,0.2,1.01,0.6,1.41
		c0.2,0.4,0.6,0.6,1.21,0.8c0.6,0.2,1.41,0.2,2.21,0.2c0.6,0,1.01,0,1.61,0c0.4-0.2,1.01-0.2,1.41-0.2v-3.22c-0.2,0-0.4,0-0.4,0
		c-0.2,0-0.4,0-0.6,0c-0.6,0-1.21-0.2-1.41-0.4c-0.2-0.4-0.2-0.8-0.2-1.61v-9.66h2.62v-3.22h-2.62v-5.03h-4.63V135.92
		L1089.33,135.92z M1111.67,145.78v-1.21c0-1.21,0-2.62-0.2-3.62c-0.2-1.21-0.4-2.21-1.01-3.02c-0.4-0.81-1.21-1.41-2.01-1.81
		c-0.8-0.4-2.01-0.6-3.22-0.6c-1.61,0-2.82,0.2-3.82,0.8c-1.01,0.4-1.61,1.21-2.21,2.01c-0.4,0.8-0.8,1.81-1.01,3.02
		c-0.2,1.01-0.2,2.21-0.2,3.42c0,1.21,0,2.21,0.2,3.42c0,1.21,0.4,2.21,0.8,3.22c0.4,0.8,1.01,1.61,2.01,2.21
		c1.01,0.6,2.21,0.8,4.02,0.8c2.21,0,3.82-0.6,4.83-1.61c1.01-1.21,1.61-2.82,1.61-4.83h-4.23c0,1.01-0.2,2.01-0.6,2.41
		c-0.4,0.6-1.01,1.01-1.81,1.01c-0.4,0-0.8-0.2-1.01-0.4c-0.4-0.2-0.6-0.6-0.8-1.01c0-0.4-0.2-0.8-0.2-1.41
		c-0.2-0.4-0.2-1.01-0.2-1.41v-1.41H1111.67L1111.67,145.78z M1102.61,142.97v-0.81c0-0.4,0-0.8,0.2-1.21c0-0.4,0.2-0.8,0.2-1.21
		c0.2-0.2,0.6-0.6,0.8-0.8c0.4-0.2,0.6-0.2,1.21-0.2c0.4,0,0.8,0,1.21,0.2c0.2,0.2,0.4,0.4,0.6,0.8c0.2,0.4,0.2,0.8,0.4,1.41
		c0,0.4,0,1.01,0,1.81H1102.61L1102.61,142.97z M1127.56,142.56c0-2.21-0.6-4.02-1.61-5.23c-1.01-1.21-2.62-1.81-4.83-1.81
		c-1.01,0-2.01,0.2-3.02,0.4c-0.8,0.4-1.61,0.8-2.21,1.61c-0.6,0.6-1.21,1.61-1.61,2.82c-0.2,1.21-0.4,2.82-0.4,4.63
		c0,1.81,0,3.42,0.4,4.63c0.2,1.21,0.6,2.21,1.21,2.82c0.6,0.8,1.41,1.21,2.21,1.61c0.8,0.2,1.81,0.4,3.02,0.4
		c2.41,0,4.23-0.6,5.23-1.81c1.01-1.41,1.61-3.22,1.61-5.43h-4.43c0,1.41-0.2,2.42-0.6,3.22c-0.2,0.6-0.8,1.01-1.61,1.01
		c-0.6,0-1.01-0.2-1.21-0.4c-0.4-0.2-0.6-0.6-0.8-1.21c-0.2-0.4-0.4-1.21-0.4-2.01c0-0.6,0-1.61,0-2.82c0-1.01,0-1.81,0-2.62
		s0.2-1.41,0.4-2.01c0.2-0.4,0.4-0.8,0.8-1.21c0.4-0.2,0.8-0.2,1.41-0.2c0.4,0,0.8,0,1.01,0.2c0.2,0.2,0.4,0.6,0.6,0.8
		c0.2,0.4,0.2,0.8,0.4,1.21c0,0.4,0,0.8,0,1.41H1127.56L1127.56,142.56z M1130.18,154.03h4.63v-12.07c0-1.81,0.8-2.82,2.41-2.82
		c0.8,0,1.21,0,1.61,0.4c0.4,0.4,0.4,1.01,0.4,2.01v12.48h4.63v-13.48c0-1.81-0.4-3.02-1.21-3.82c-0.8-0.8-1.81-1.21-3.42-1.21
		c-2.01,0-3.42,0.8-4.23,2.21h-0.2v-7.65h-4.63V154.03L1130.18,154.03z M1147.29,154.03h4.63v-12.07c0-1.81,0.8-2.82,2.41-2.82
		c0.6,0,1.21,0,1.41,0.4c0.4,0.4,0.6,1.01,0.6,2.01v12.48h4.63v-13.48c0-1.81-0.4-3.02-1.21-3.82c-0.8-0.8-2.01-1.21-3.42-1.21
		c-1.01,0-2.01,0.2-2.82,0.6c-0.6,0.4-1.41,1.01-1.81,2.01l0,0v-2.21h-4.43V154.03L1147.29,154.03z M1164.19,133.71h4.63v-3.82
		h-4.63V133.71L1164.19,133.71z M1164.19,154.03h4.63v-18.11h-4.63V154.03L1164.19,154.03z M1172.24,130.09v23.95h4.63v-5.23
		l1.81-2.21l3.82,7.45h5.03l-6.04-10.87l5.23-7.24h-5.03l-4.63,6.84h-0.2v-12.68H1172.24L1172.24,130.09z M1206.25,154.03h4.43
		v-18.11h-4.63V148c0,2.01-0.8,3.02-2.41,3.02c-0.8,0-1.21-0.2-1.61-0.6c-0.2-0.4-0.4-1.01-0.4-2.01v-12.48h-4.63v13.48
		c0,1.81,0.4,3.02,1.21,3.82s1.81,1.21,3.42,1.21c1.01,0,1.81-0.2,2.62-0.6c0.81-0.4,1.41-1.01,2.01-2.01l0,0V154.03L1206.25,154.03
		z M1213.89,154.03h4.63v-12.07c0-1.81,0.8-2.82,2.41-2.82c0.8,0,1.21,0,1.61,0.4c0.4,0.4,0.4,1.01,0.4,2.01v12.48h4.63v-13.48
		c0-1.81-0.4-3.02-1.21-3.82c-0.81-0.8-1.81-1.21-3.42-1.21c-1.01,0-1.81,0.2-2.62,0.6c-0.8,0.4-1.41,1.01-1.81,2.01h-0.2v-2.21
		h-4.43V154.03L1213.89,154.03z M1240.25,154.03h4.43v-23.95h-4.63v7.65h-0.2c-0.4-0.8-1.01-1.41-1.61-1.61
		c-0.6-0.4-1.41-0.6-2.21-0.6c-1.81,0-3.22,0.8-4.23,2.21c-0.8,1.41-1.21,3.82-1.21,7.24c0,3.42,0.4,5.84,1.21,7.24
		c1.01,1.61,2.41,2.21,4.23,2.21c1.01,0,1.81-0.2,2.41-0.6c0.6-0.2,1.21-0.8,1.61-1.81h0.2V154.03L1240.25,154.03z M1235.63,140.55
		c0.2-1.01,1.01-1.41,1.81-1.41c1.21,0,1.81,0.4,2.01,1.41c0.4,1.01,0.6,2.42,0.6,4.43c0,2.01-0.2,3.42-0.6,4.43
		c-0.2,1.01-0.8,1.61-2.01,1.61c-0.8,0-1.61-0.6-1.81-1.61c-0.4-1.01-0.4-2.41-0.4-4.43
		C1235.22,142.97,1235.22,141.56,1235.63,140.55"/>
	<path class="st1" d="M1087.52,108.56v1.01c0,2.21,0.6,3.82,1.81,5.03c1.01,1.21,3.02,1.81,5.84,1.81c2.62,0,4.63-0.6,6.04-1.81
		c1.41-1.01,2.21-3.02,2.21-5.43c0-0.8,0-1.41-0.2-2.01s-0.4-1.21-0.8-1.61c-0.2-0.6-0.8-1.01-1.41-1.41
		c-0.6-0.6-1.21-1.01-2.21-1.41l-3.62-1.61c-1.01-0.4-1.81-0.8-2.01-1.41c-0.4-0.4-0.6-1.01-0.6-1.81c0-0.4,0.2-0.6,0.2-1.01
		c0-0.4,0.2-0.6,0.4-0.8c0.2-0.4,0.6-0.6,0.81-0.8c0.4,0,0.8-0.2,1.41-0.2c1.01,0,1.61,0.4,2.01,1.01c0.4,0.6,0.6,1.41,0.6,2.62
		h4.63v-0.6c0-1.21-0.2-2.21-0.6-3.02c-0.4-0.8-0.8-1.41-1.41-2.01c-0.8-0.6-1.41-0.81-2.41-1.21c-0.8-0.2-1.81-0.2-3.02-0.2
		c-2.21,0-4.02,0.4-5.43,1.61c-1.21,1.21-2.01,3.02-2.01,5.43c0,0.8,0.2,1.81,0.4,2.62c0.2,0.6,0.6,1.41,1.21,1.81
		c0.6,0.6,1.21,1.21,2.01,1.61c0.8,0.4,1.61,0.8,2.82,1.21c0.8,0.2,1.41,0.4,2.01,0.8c0.4,0.2,1.01,0.4,1.21,0.8
		c0.4,0.2,0.6,0.6,0.8,1.01c0.2,0.4,0.2,0.8,0.2,1.41c0,1.01-0.4,1.81-0.8,2.21c-0.6,0.4-1.41,0.8-2.01,0.8
		c-0.8,0-1.21-0.2-1.61-0.4c-0.4-0.2-0.81-0.4-1.01-0.6c-0.2-0.4-0.4-0.8-0.6-1.21c0-0.4,0-1.01,0-1.61v-0.6H1087.52L1087.52,108.56
		z M1107.24,97.89h-2.41v3.22h2.41v10.26c0,1.01,0,1.81,0,2.41c0.2,0.6,0.4,1.01,0.8,1.41c0.2,0.4,0.6,0.6,1.21,0.8
		c0.6,0.2,1.21,0.2,2.21,0.2c0.6,0,1.01,0,1.41,0c0.6-0.2,1.01-0.2,1.61-0.2v-3.22c-0.2,0-0.4,0-0.6,0c0,0-0.2,0-0.4,0
		c-0.8,0-1.21,0-1.41-0.4c-0.2-0.2-0.2-0.8-0.2-1.61v-9.66h2.62v-3.22h-2.62v-5.03h-4.63V97.89L1107.24,97.89z M1116.5,116h4.63
		v-10.87c0-0.6,0.2-1.01,0.4-1.41c0.2-0.6,0.4-0.8,0.8-1.01c0.2-0.4,0.6-0.6,1.01-0.6c0.4-0.2,0.8-0.2,1.21-0.2c0.2,0,0.4,0,0.8,0
		c0.2,0,0.4,0,0.6,0v-4.43c0,0-0.2,0-0.4,0c-0.2,0-0.2,0-0.4,0c-1.01,0-1.81,0.2-2.41,0.8c-0.6,0.4-1.21,1.21-1.81,2.01l0,0v-2.41
		h-4.43V116L1116.5,116z M1127.77,111.17c0.4,1.21,0.6,2.21,1.21,3.02c0.6,0.8,1.21,1.41,2.21,1.81c1.01,0.2,2.01,0.4,3.42,0.4
		c1.41,0,2.41-0.2,3.42-0.6c0.8-0.4,1.61-1.01,2.21-1.81c0.4-0.8,0.8-1.81,1.21-3.02c0.2-1.01,0.2-2.41,0.2-4.02
		c0-1.61,0-3.02-0.2-4.02c-0.2-1.21-0.6-2.21-1.21-3.02c-0.6-0.8-1.21-1.41-2.21-1.81c-0.8-0.4-2.01-0.6-3.42-0.6
		c-1.21,0-2.41,0.2-3.22,0.6c-1.01,0.4-1.81,1.01-2.21,1.81c-0.6,0.8-1.01,1.81-1.21,3.02c-0.4,1.21-0.4,2.41-0.4,4.02
		C1127.56,108.56,1127.56,109.97,1127.77,111.17 M1132.19,104.33c0-0.6,0.2-1.41,0.4-2.01c0.2-0.4,0.4-1.01,0.6-1.21
		c0.4-0.4,0.8-0.4,1.41-0.4c1.01,0,1.61,0.4,2.01,1.41c0.4,1.01,0.4,2.62,0.4,4.83c0,2.21,0,3.82-0.4,4.83
		c-0.4,1.01-1.01,1.61-2.01,1.61c-0.6,0-1.01-0.2-1.41-0.6c-0.2-0.2-0.4-0.6-0.6-1.21c-0.2-0.6-0.4-1.21-0.4-2.01
		c0-0.8,0-1.61,0-2.62C1132.19,106.14,1132.19,105.14,1132.19,104.33 M1144.47,116h4.63v-11.87c0-1.01,0.2-1.81,0.6-2.41
		c0.4-0.4,1.01-0.6,1.81-0.6c0.6,0,1.01,0.2,1.41,0.6c0.2,0.4,0.4,0.8,0.4,1.61V116h4.63v-11.87c0-1.01,0.2-1.81,0.6-2.41
		c0.4-0.4,1.01-0.6,1.81-0.6c0.6,0,1.01,0.2,1.41,0.6c0.2,0.4,0.4,0.8,0.4,1.61V116h4.63v-13.08c0-1.81-0.4-3.22-1.21-4.02
		c-0.6-1.01-1.81-1.41-3.22-1.41c-1.21,0-2.21,0.2-3.02,0.8c-0.6,0.4-1.21,1.01-1.61,2.01l0,0c-0.4-0.8-0.8-1.61-1.61-2.01
		c-0.6-0.6-1.61-0.8-2.62-0.8c-1.01,0-1.81,0.2-2.62,0.6c-0.8,0.2-1.41,0.8-2.01,1.61l0,0v-1.81h-4.43V116L1144.47,116z
		 M1170.02,116h4.63v-10.87c0-0.6,0.2-1.01,0.4-1.41c0.2-0.6,0.4-0.8,0.8-1.01c0.2-0.4,0.6-0.6,1.01-0.6c0.4-0.2,0.8-0.2,1.21-0.2
		c0.2,0,0.6,0,0.81,0c0.2,0,0.4,0,0.6,0v-4.43c0,0-0.2,0-0.4,0s-0.2,0-0.4,0c-1.01,0-1.81,0.2-2.41,0.8
		c-0.6,0.4-1.21,1.21-1.81,2.01l0,0v-2.41h-4.43V116L1170.02,116z M1181.7,95.68h4.63v-3.82h-4.63V95.68L1181.7,95.68z M1181.7,116
		h4.63V97.89h-4.63V116L1181.7,116z M1202.83,104.53c0-2.21-0.4-4.02-1.61-5.23c-1.01-1.21-2.62-1.81-4.83-1.81
		c-1.01,0-2.01,0.2-3.02,0.4c-0.8,0.4-1.61,0.8-2.21,1.61c-0.6,0.6-1.21,1.61-1.61,2.82c-0.2,1.21-0.4,2.82-0.4,4.63
		c0,1.81,0.2,3.42,0.4,4.63c0.2,1.21,0.8,2.21,1.21,2.82c0.6,0.8,1.41,1.21,2.21,1.61c0.8,0.2,1.81,0.4,3.02,0.4
		c2.41,0,4.23-0.6,5.23-1.81c1.21-1.41,1.61-3.22,1.61-5.43h-4.43c0,1.41-0.2,2.41-0.4,3.22c-0.4,0.6-1.01,1.01-1.81,1.01
		c-0.4,0-1.01-0.2-1.21-0.4c-0.4-0.2-0.6-0.6-0.8-1.21c-0.2-0.4-0.2-1.21-0.4-1.81c0-0.8,0-1.81,0-3.02c0-1.01,0-1.81,0-2.62
		c0.2-0.8,0.2-1.41,0.4-2.01c0.2-0.4,0.4-0.8,0.8-1.01c0.4-0.4,0.8-0.4,1.41-0.4c0.4,0,0.8,0,1.01,0.2c0.4,0.2,0.6,0.6,0.6,0.8
		c0.2,0.4,0.4,0.81,0.4,1.21c0,0.4,0,0.8,0,1.41H1202.83L1202.83,104.53z M1205.44,116h4.63v-12.07c0-1.81,1.01-2.82,2.62-2.82
		c0.6,0,1.21,0.2,1.41,0.4c0.4,0.4,0.4,1.01,0.4,2.01V116h4.63v-13.48c0-1.81-0.4-3.02-1.01-3.82c-0.8-0.8-2.01-1.21-3.42-1.21
		c-2.01,0-3.62,0.8-4.43,2.21h-0.2v-7.65h-4.63V116L1205.44,116z M1223.55,97.89h-2.21v3.22h2.21v10.26c0,1.01,0,1.81,0.2,2.41
		c0.2,0.6,0.4,1.01,0.6,1.41c0.4,0.4,0.81,0.6,1.41,0.8c0.4,0.2,1.21,0.2,2.21,0.2c0.4,0,1.01,0,1.41,0c0.6-0.2,1.01-0.2,1.61-0.2
		v-3.22c-0.2,0-0.4,0-0.6,0c-0.2,0-0.4,0-0.6,0c-0.6,0-1.01,0-1.21-0.4c-0.2-0.2-0.4-0.8-0.4-1.61v-9.66h2.82v-3.22h-2.82v-5.03
		h-4.63V97.89L1223.55,97.89z M1246.09,107.75v-1.21c0-1.21-0.2-2.62-0.2-3.62c-0.2-1.21-0.6-2.21-1.01-3.02
		c-0.6-0.8-1.21-1.41-2.21-1.81c-0.8-0.4-1.81-0.6-3.22-0.6c-1.61,0-2.82,0.2-3.82,0.8c-0.8,0.4-1.61,1.21-2.01,2.01
		c-0.6,0.8-1.01,1.81-1.01,3.02c-0.2,1.01-0.4,2.21-0.4,3.42c0,1.21,0.2,2.21,0.2,3.42c0.2,1.21,0.4,2.21,0.8,3.22
		c0.4,0.8,1.21,1.61,2.21,2.21c0.8,0.6,2.21,0.8,3.82,0.8c2.21,0,3.82-0.6,4.83-1.61c1.01-1.21,1.61-2.82,1.81-4.83h-4.23
		c-0.2,1.01-0.4,2.01-0.8,2.41c-0.4,0.6-0.8,1.01-1.61,1.01c-0.4,0-0.8-0.2-1.21-0.4c-0.2-0.2-0.4-0.6-0.6-1.01
		c-0.2-0.4-0.4-0.8-0.4-1.21c0-0.6-0.2-1.21-0.2-1.61v-1.41H1246.09L1246.09,107.75z M1236.83,104.93v-0.8c0-0.4,0.2-0.8,0.2-1.21
		c0-0.4,0.2-0.8,0.4-1.21c0.2-0.2,0.4-0.6,0.6-0.8c0.4-0.2,0.8-0.2,1.21-0.2c0.6,0,0.8,0,1.21,0.2c0.2,0.2,0.6,0.4,0.6,0.8
		c0.2,0.4,0.4,0.8,0.4,1.41c0.2,0.4,0.2,1.01,0.2,1.81H1236.83L1236.83,104.93z M1248.71,116h4.63v-10.87c0-0.6,0.2-1.01,0.4-1.41
		c0.2-0.6,0.4-0.8,0.8-1.01c0.2-0.4,0.6-0.6,1.01-0.6c0.4-0.2,0.8-0.2,1.21-0.2c0.2,0,0.6,0,0.8,0c0.2,0,0.4,0,0.6,0v-4.43
		c0,0-0.2,0-0.4,0c0,0-0.2,0-0.4,0c-1.01,0-1.81,0.2-2.41,0.8c-0.6,0.4-1.21,1.21-1.61,2.01h-0.2v-2.41h-4.43V116L1248.71,116z
		 M1259.98,108.36h9.46v-4.02h-9.46V108.36"/>
	<path class="st1" d="M1062.77,230.1h-38.03l-12.07-30.59h-32.8v30.59h-35.01V115.6h-58.36v19.72h35.22v37.43h-35.22v19.72h52.72
		v37.63h-87.94V115.6h-69.02c-5.03,0-8.85,4.23-8.85,9.86c0,5.23,4.02,9.86,8.85,9.86h20.32c11.27,0,21.93,4.43,29.98,12.48
		c9.06,9.06,14.09,21.73,14.09,34.81c0,26.16-19.72,47.49-44.07,47.49H698.94v-94.78h35.22v57.15h68.42c4.23,0,8.85-3.82,8.85-9.86
		c0-5.43-3.82-9.86-8.85-9.86h-20.32c-24.15,0-43.87-21.13-44.07-47.29c0-13.08,5.03-25.96,14.09-34.81
		c8.05-8.25,18.71-12.68,29.98-12.68h221.15L1062.77,230.1L1062.77,230.1z M1029.57,223.06h22.94L998.58,85.01H782.25
		c-9.46,0-18.31,3.82-24.95,10.46c-7.85,7.85-12.07,18.71-12.07,29.98c0,22.14,16.7,40.25,37.03,40.25h20.32
		c8.85,0,15.9,7.45,15.9,16.9c0,9.26-7.04,16.9-15.9,16.9h-75.46v-57.35h-21.13v80.9h96.59c20.32,0,37.03-18.11,37.03-40.45
		c0-11.27-4.43-22.14-12.07-29.78c-6.64-6.84-15.49-10.67-24.95-10.67h-20.32c-8.85,0-15.9-7.45-15.9-16.7
		c0-9.46,7.04-16.9,15.9-16.9h76.07v114.5h73.85v-23.54h-52.72v-33.81h35.22v-23.54h-35.22v-33.61h72.44v114.5h21.13v-30.59h44.47
		L1029.57,223.06L1029.57,223.06z M1009.84,172.75h-37.03v-64.19h11.87L1009.84,172.75L1009.84,172.75z M979.86,165.71h19.72
		l-19.72-49.91V165.71"/>
	<path class="st1" d="M734.16,113.19h-35.22V77.97h35.22V113.19L734.16,113.19z M705.98,106.14h21.13V85.01h-21.13V106.14"/>
	<path class="st2" d="M1029.57,223.06h22.94L998.58,85.01H782.25c-9.46,0-18.31,3.82-24.95,10.46
		c-7.85,7.85-12.07,18.71-12.07,29.98c0,22.14,16.7,40.25,37.03,40.25h20.32c8.85,0,15.9,7.45,15.9,16.9c0,9.26-7.04,16.9-15.9,16.9
		h-75.46v-57.35h-21.13v80.9h96.59c20.32,0,37.03-18.11,37.03-40.45c0-11.27-4.43-22.14-12.07-29.78
		c-6.64-6.84-15.49-10.67-24.95-10.67h-20.32c-8.85,0-15.9-7.45-15.9-16.7c0-9.46,7.04-16.9,15.9-16.9h76.07v114.5h73.85v-23.54
		h-52.72v-33.81h35.22v-23.54h-35.22v-33.61h72.24v114.5h21.33v-30.59h44.47L1029.57,223.06L1029.57,223.06z M1009.84,172.75h-36.83
		v-64.19h11.67L1009.84,172.75"/>
	<polygon class="st2" points="705.98,106.14 727.11,106.14 727.11,85.01 705.98,85.01 705.98,106.14 	"/>
	<g>
		<polygon class="st3" points="651.65,230.03 655.07,230.03 655.07,77.9 651.65,77.9 651.65,230.03 		"/>
		<path class="st3" d="M221.81,206.09v23.95h13.68v-4.02h-8.85v-6.44h8.05v-3.82h-8.05v-5.63h8.65v-4.02H221.81z M238.32,230.03
			h4.63v-23.95h-4.63V230.03z M259.44,221.78v-1.21c0-1.41,0-2.62-0.2-3.62c-0.2-1.21-0.6-2.21-1.01-3.02
			c-0.6-0.8-1.21-1.41-2.01-1.81c-0.8-0.4-2.01-0.6-3.42-0.6s-2.82,0.2-3.62,0.8c-1.01,0.4-1.61,1.21-2.21,2.01
			c-0.4,0.8-0.8,1.81-1.01,3.02c-0.2,1.01-0.2,2.21-0.2,3.42c0,1.21,0,2.21,0.2,3.42c0,1.21,0.2,2.21,0.8,3.22
			c0.4,0.8,1.01,1.61,2.01,2.21c1.01,0.6,2.21,0.8,3.82,0.8c2.21,0,3.82-0.6,5.03-1.61c1.01-1.21,1.41-2.82,1.61-4.83h-4.23
			c0,1.01-0.4,2.01-0.6,2.41c-0.4,0.6-1.01,1.01-1.81,1.01c-0.4,0-0.8-0.2-1.01-0.4c-0.4-0.2-0.6-0.6-0.8-1.01
			c-0.2-0.4-0.2-0.8-0.4-1.41c0-0.4,0-1.01,0-1.41v-1.41H259.44z M250.39,218.97v-0.8c0-0.4,0-0.8,0-1.21c0.2-0.4,0.2-0.8,0.4-1.21
			c0.2-0.2,0.4-0.6,0.8-0.8c0.2-0.2,0.6-0.2,1.21-0.2c0.4,0,0.8,0,1.01,0.2c0.4,0.2,0.6,0.4,0.8,0.8c0.2,0.4,0.2,0.8,0.4,1.41
			c0,0.4,0,1.01,0,1.81H250.39z M275.34,218.56c0-2.21-0.6-4.02-1.61-5.23c-1.21-1.21-2.82-1.81-4.83-1.81
			c-1.21,0-2.01,0.2-3.02,0.4c-0.8,0.2-1.61,0.8-2.21,1.61c-0.8,0.6-1.21,1.61-1.61,2.82c-0.4,1.21-0.6,2.82-0.6,4.63
			c0,1.81,0.2,3.42,0.6,4.63c0.2,1.21,0.6,2.21,1.21,2.82c0.6,0.8,1.21,1.21,2.21,1.61c0.8,0.2,1.81,0.4,3.02,0.4
			c2.41,0,4.23-0.6,5.23-1.81c1.01-1.41,1.61-3.22,1.61-5.43h-4.43c0,1.41-0.2,2.41-0.6,3.22c-0.4,0.6-0.8,1.01-1.61,1.01
			c-0.6,0-1.01-0.2-1.21-0.4c-0.4-0.2-0.6-0.6-0.8-1.21c-0.2-0.4-0.4-1.21-0.4-2.01c0-0.6-0.2-1.61-0.2-2.82
			c0-1.01,0.2-1.81,0.2-2.62c0-0.81,0.2-1.41,0.4-2.01c0.2-0.4,0.4-0.8,0.8-1.21c0.2-0.2,0.8-0.2,1.41-0.2c0.4,0,0.6,0,1.01,0.2
			c0.2,0.2,0.4,0.6,0.6,0.8c0.2,0.4,0.2,0.8,0.4,1.21c0,0.4,0,0.8,0,1.41H275.34z M279.17,211.92h-2.41v3.22h2.41v10.26
			c0,1.01,0,1.81,0.2,2.41c0,0.6,0.4,1.01,0.6,1.41c0.4,0.4,0.8,0.6,1.21,0.8c0.6,0,1.41,0.2,2.21,0.2c0.6,0,1.21,0,1.61,0
			c0.4-0.2,1.01-0.2,1.41-0.2v-3.22c0,0-0.2,0-0.4,0s-0.4,0-0.6,0c-0.6,0-1.01-0.2-1.21-0.4c-0.2-0.4-0.4-0.8-0.4-1.61v-9.66h2.62
			v-3.22h-2.62v-5.03h-4.63V211.92z M288.62,230.03h4.63v-10.87c0-0.6,0-1.01,0.2-1.61c0.2-0.4,0.4-0.6,0.8-1.01
			c0.4-0.2,0.8-0.4,1.21-0.4c0.4-0.2,0.8-0.2,1.21-0.2c0.2,0,0.4,0,0.6,0s0.4,0,0.8,0v-4.43c-0.2,0-0.4,0-0.4,0c-0.2,0-0.4,0-0.4,0
			c-1.01,0-1.81,0.2-2.62,0.8c-0.6,0.4-1.21,1.21-1.61,2.01l0,0v-2.41h-4.43V230.03z M299.89,225.2c0.2,1.21,0.6,2.21,1.21,3.02
			c0.4,0.8,1.21,1.41,2.01,1.61c1.01,0.4,2.21,0.6,3.62,0.6c1.21,0,2.41-0.2,3.22-0.6c1.01-0.4,1.61-1.01,2.21-1.81
			c0.6-0.8,1.01-1.81,1.21-3.02c0.2-1.21,0.4-2.42,0.4-4.02s-0.2-3.02-0.4-4.23c-0.2-1.01-0.6-2.01-1.01-2.82
			c-0.6-0.8-1.41-1.41-2.21-1.81c-1.01-0.4-2.21-0.6-3.42-0.6c-1.41,0-2.62,0.2-3.42,0.6c-1.01,0.4-1.61,1.01-2.21,1.81
			c-0.6,0.8-1.01,1.81-1.21,3.02c-0.2,1.21-0.4,2.41-0.4,4.02S299.69,224,299.89,225.2L299.89,225.2z M304.32,218.36
			c0-0.81,0-1.41,0.2-2.01c0.2-0.4,0.4-1.01,0.8-1.21c0.2-0.4,0.8-0.4,1.41-0.4c0.8,0,1.41,0.4,1.81,1.41
			c0.4,1.01,0.6,2.62,0.6,4.83c0,2.21-0.2,3.82-0.6,4.83c-0.4,1.01-1.01,1.61-1.81,1.61c-0.6,0-1.21-0.2-1.41-0.6
			c-0.4-0.2-0.6-0.8-0.8-1.21c-0.2-0.6-0.2-1.21-0.2-2.01c-0.2-0.8-0.2-1.61-0.2-2.62C304.12,219.97,304.12,219.17,304.32,218.36
			L304.32,218.36z M316.39,230.03h4.63v-12.07c0-2.01,0.8-2.82,2.41-2.82c0.8,0,1.21,0,1.61,0.4c0.4,0.4,0.4,1.01,0.4,2.01v12.48
			h4.63v-13.48c0-1.81-0.4-3.02-1.21-3.82c-0.8-0.8-1.81-1.21-3.42-1.21c-1.01,0-1.81,0.2-2.62,0.6c-0.8,0.4-1.41,1.01-1.81,2.01
			h-0.2v-2.21h-4.43V230.03z M333.5,209.71h4.63v-3.82h-4.63V209.71z M333.5,230.03h4.63v-18.11h-4.63V230.03z M354.63,218.56
			c0-2.21-0.4-4.02-1.61-5.23c-1.01-1.21-2.62-1.81-4.83-1.81c-1.01,0-2.01,0.2-2.82,0.4c-1.01,0.2-1.81,0.8-2.41,1.61
			c-0.6,0.6-1.21,1.61-1.41,2.82c-0.4,1.21-0.6,2.82-0.6,4.63c0,1.81,0.2,3.42,0.4,4.63s0.8,2.21,1.21,2.82
			c0.6,0.8,1.41,1.21,2.21,1.61c0.8,0.2,1.81,0.4,3.02,0.4c2.41,0,4.23-0.6,5.23-1.81c1.21-1.41,1.61-3.22,1.61-5.43h-4.43
			c0,1.41-0.2,2.41-0.4,3.22c-0.4,0.6-1.01,1.01-1.81,1.01c-0.4,0-0.8-0.2-1.21-0.4c-0.4-0.2-0.6-0.6-0.8-1.21
			c-0.2-0.4-0.2-1.21-0.4-2.01c0-0.6,0-1.61,0-2.82c0-1.01,0-1.81,0-2.62c0.2-0.81,0.2-1.41,0.4-2.01c0.2-0.4,0.4-0.8,0.8-1.21
			c0.4-0.2,0.8-0.2,1.41-0.2c0.4,0,0.8,0,1.01,0.2c0.4,0.2,0.6,0.6,0.6,0.8c0.2,0.4,0.4,0.8,0.4,1.21s0,0.8,0,1.41H354.63z
			 M364.29,222.59v1.01c0,2.21,0.6,3.82,1.81,5.03c1.21,1.21,3.22,1.81,5.84,1.81c2.62,0,4.63-0.6,6.24-1.81
			c1.41-1.21,2.21-3.02,2.21-5.43c0-0.8-0.2-1.41-0.2-2.01c-0.2-0.6-0.4-1.21-0.8-1.81c-0.4-0.4-0.8-0.8-1.41-1.41
			c-0.6-0.4-1.41-0.8-2.21-1.21l-3.82-1.61c-1.01-0.4-1.61-0.8-2.01-1.41c-0.2-0.4-0.4-1.01-0.4-1.81c0-0.4,0-0.6,0.2-1.01
			c0-0.4,0.2-0.6,0.4-1.01c0.2-0.2,0.4-0.4,0.8-0.6c0.4,0,0.8-0.2,1.41-0.2c0.8,0,1.61,0.4,2.01,1.01c0.4,0.6,0.6,1.41,0.6,2.62
			h4.63v-0.6c0-1.21-0.2-2.21-0.6-3.02c-0.4-0.8-0.8-1.41-1.61-2.01c-0.6-0.6-1.41-1.01-2.21-1.21c-1.01-0.2-2.01-0.2-3.02-0.2
			c-2.41,0-4.23,0.4-5.43,1.61c-1.41,1.21-2.01,3.02-2.01,5.43c0,0.8,0.2,1.81,0.4,2.41c0.2,0.8,0.6,1.41,1.21,2.01
			c0.4,0.6,1.01,1.21,1.81,1.61c0.8,0.4,1.81,0.8,2.82,1.21c0.8,0.2,1.61,0.4,2.01,0.6c0.6,0.4,1.01,0.6,1.41,1.01
			c0.4,0.2,0.6,0.6,0.6,1.01c0.2,0.4,0.4,0.81,0.4,1.41c0,1.01-0.4,1.81-1.01,2.21c-0.6,0.4-1.21,0.8-2.01,0.8
			c-0.6,0-1.21-0.2-1.61-0.4c-0.4-0.2-0.6-0.4-0.8-0.6c-0.4-0.4-0.6-0.8-0.6-1.21c0-0.4-0.2-1.01-0.2-1.61v-0.6H364.29z M383,235.87
			h2.01c1.01,0,1.81,0,2.62-0.2c0.6-0.2,1.21-0.4,1.81-1.01c0.4-0.4,1.01-1.41,1.41-2.62c0.6-1.41,0.8-2.41,1.01-3.22l4.43-16.9
			h-4.63l-2.41,12.48l0,0l-2.82-12.48h-4.83l5.23,18.11c-0.2,0.8-0.4,1.41-0.8,1.81c-0.2,0.4-1.01,0.8-1.81,0.8
			c-0.4,0-0.8-0.2-1.21-0.2V235.87z M397.29,224.2v0.6c0,0.8,0.2,1.61,0.4,2.21c0.2,0.8,0.6,1.41,1.01,1.81
			c0.6,0.6,1.21,1.01,2.01,1.21c0.8,0.4,2.01,0.4,3.22,0.4c1.01,0,2.01,0,2.82-0.4c0.8-0.2,1.41-0.4,2.01-1.01
			c0.6-0.4,1.21-1.01,1.41-1.81c0.4-0.6,0.6-1.41,0.6-2.41c0-1.41-0.4-2.41-1.01-3.22c-0.6-0.8-1.61-1.41-3.02-2.01l-2.82-0.8
			c-0.8-0.4-1.21-0.6-1.61-1.01c-0.2-0.4-0.4-0.8-0.4-1.21c0-0.6,0.2-1.01,0.6-1.41c0.6-0.4,1.01-0.4,1.61-0.4
			c0.8,0,1.21,0.2,1.61,0.6c0.2,0.4,0.4,1.01,0.4,2.01h4.23v-0.8c0-1.61-0.6-2.82-1.61-3.62c-1.01-1.01-2.41-1.41-4.63-1.41
			c-1.21,0-2.21,0.2-3.02,0.4c-0.8,0.2-1.61,0.6-2.01,1.21c-0.6,0.4-1.01,1.01-1.21,1.61c-0.2,0.8-0.4,1.41-0.4,2.21
			c0,1.21,0.4,2.21,1.01,3.02c0.6,1.01,1.61,1.61,2.82,2.01l3.22,1.21c0.6,0.2,1.01,0.4,1.21,0.6c0.4,0.4,0.6,0.8,0.6,1.41
			c0,0.6-0.2,1.21-0.6,1.61c-0.6,0.4-1.01,0.6-1.81,0.6c-0.8,0-1.41-0.4-1.81-0.8c-0.4-0.4-0.6-1.21-0.6-1.81v-0.6H397.29z
			 M414.39,211.92h-2.21v3.22h2.21v10.26c0,1.01,0.2,1.81,0.2,2.41c0.2,0.6,0.4,1.01,0.6,1.41c0.4,0.4,0.8,0.6,1.41,0.8
			c0.6,0,1.21,0.2,2.21,0.2c0.4,0,1.01,0,1.41,0c0.6-0.2,1.01-0.2,1.61-0.2v-3.22c-0.2,0-0.4,0-0.6,0s-0.2,0-0.4,0
			c-0.8,0-1.21-0.2-1.41-0.4c-0.2-0.4-0.4-0.8-0.4-1.61v-9.66h2.82v-3.22h-2.82v-5.03h-4.63V211.92z M436.93,221.78v-1.21
			c0-1.41,0-2.62-0.2-3.62c-0.2-1.21-0.6-2.21-1.01-3.02c-0.6-0.8-1.21-1.41-2.01-1.81c-1.01-0.4-2.01-0.6-3.42-0.6
			c-1.41,0-2.82,0.2-3.62,0.8c-1.01,0.4-1.81,1.21-2.21,2.01c-0.6,0.8-0.8,1.81-1.01,3.02c-0.2,1.01-0.2,2.21-0.2,3.42
			c0,1.21,0,2.21,0,3.42c0.2,1.21,0.4,2.21,0.8,3.22c0.6,0.8,1.21,1.61,2.21,2.21c0.8,0.6,2.21,0.8,3.82,0.8
			c2.21,0,3.82-0.6,4.83-1.61c1.21-1.21,1.61-2.82,1.81-4.83h-4.23c-0.2,1.01-0.4,2.01-0.8,2.41c-0.2,0.6-0.8,1.01-1.61,1.01
			c-0.4,0-0.8-0.2-1.01-0.4c-0.4-0.2-0.6-0.6-0.8-1.01c-0.2-0.4-0.2-0.8-0.4-1.41c0-0.4,0-1.01,0-1.41v-1.41H436.93z M427.88,218.97
			v-0.8c0-0.4,0-0.8,0-1.21c0.2-0.4,0.2-0.8,0.4-1.21c0.2-0.2,0.4-0.6,0.8-0.8c0.2-0.2,0.6-0.2,1.01-0.2c0.6,0,1.01,0,1.21,0.2
			c0.4,0.2,0.6,0.4,0.8,0.8c0.2,0.4,0.2,0.8,0.2,1.41c0.2,0.4,0.2,1.01,0.2,1.81H427.88z M439.55,230.03h4.63v-11.87
			c0-1.01,0.4-1.81,0.8-2.41c0.4-0.4,1.01-0.6,1.61-0.6c0.8,0,1.21,0.2,1.41,0.6c0.4,0.4,0.4,0.8,0.4,1.61v12.68h4.63v-11.87
			c0-1.01,0.4-1.81,0.8-2.41c0.4-0.4,1.01-0.6,1.61-0.6c0.8,0,1.21,0.2,1.41,0.6c0.4,0.4,0.4,0.8,0.4,1.61v12.68h4.63v-13.08
			c0-1.81-0.2-3.22-1.01-4.02c-0.8-1.01-1.81-1.41-3.42-1.41c-1.01,0-2.01,0.2-2.82,0.6c-0.8,0.6-1.41,1.21-1.81,2.21l0,0
			c-0.2-0.8-0.8-1.61-1.41-2.01c-0.8-0.6-1.61-0.8-2.82-0.8c-1.01,0-1.81,0.2-2.41,0.6c-0.8,0.2-1.41,0.8-2.01,1.61h-0.2v-1.81
			h-4.43V230.03z M464.5,224.2v0.6c0,0.8,0.2,1.61,0.4,2.21c0.2,0.8,0.4,1.41,1.01,1.81c0.4,0.6,1.21,1.01,2.01,1.21
			c0.8,0.4,2.01,0.4,3.22,0.4c1.01,0,1.81,0,2.62-0.4c1.01-0.2,1.61-0.4,2.21-1.01c0.6-0.4,1.01-1.01,1.41-1.81
			c0.4-0.6,0.4-1.41,0.4-2.41c0-1.41-0.2-2.41-0.8-3.22c-0.6-0.8-1.61-1.41-3.02-2.01l-2.82-0.8c-0.8-0.4-1.41-0.6-1.61-1.01
			c-0.4-0.4-0.4-0.8-0.4-1.21c0-0.6,0.2-1.01,0.6-1.41c0.4-0.4,1.01-0.4,1.61-0.4c0.6,0,1.21,0.2,1.61,0.6
			c0.2,0.4,0.4,1.01,0.4,2.01h4.02v-0.8c0-1.61-0.4-2.82-1.41-3.62c-1.01-1.01-2.62-1.41-4.63-1.41c-1.21,0-2.21,0.2-3.02,0.4
			c-0.8,0.2-1.61,0.6-2.21,1.21c-0.4,0.4-0.8,1.01-1.01,1.61c-0.4,0.8-0.4,1.41-0.4,2.21c0,1.21,0.2,2.21,1.01,3.02
			c0.6,1.01,1.61,1.61,2.82,2.01l3.22,1.21c0.4,0.2,0.8,0.4,1.21,0.6c0.4,0.4,0.4,0.8,0.4,1.41c0,0.6-0.2,1.21-0.6,1.61
			c-0.4,0.4-1.01,0.6-1.61,0.6c-0.8,0-1.41-0.4-1.81-0.8c-0.4-0.4-0.6-1.21-0.6-1.81v-0.6H464.5"/>
		<path class="st3" d="M221.81,168.05V192h13.68v-4.02h-8.85v-6.44h8.05v-3.82h-8.05v-5.63h8.65v-4.02H221.81z M238.32,192h4.63
			v-23.95h-4.63V192z M259.44,183.75v-1.21c0-1.21,0-2.62-0.2-3.62c-0.2-1.21-0.6-2.21-1.01-3.02c-0.6-0.8-1.21-1.41-2.01-1.81
			c-0.8-0.4-2.01-0.6-3.42-0.6s-2.82,0.2-3.62,0.8c-1.01,0.4-1.61,1.21-2.21,2.01c-0.4,0.8-0.8,1.81-1.01,3.02
			c-0.2,1.01-0.2,2.21-0.2,3.42c0,1.21,0,2.21,0.2,3.42c0,1.21,0.2,2.21,0.8,3.22c0.4,0.8,1.01,1.61,2.01,2.21
			c1.01,0.6,2.21,0.8,3.82,0.8c2.21,0,3.82-0.6,5.03-1.61c1.01-1.21,1.41-2.82,1.61-4.83h-4.23c0,1.01-0.4,2.01-0.6,2.41
			c-0.4,0.6-1.01,1.01-1.81,1.01c-0.4,0-0.8-0.2-1.01-0.4c-0.4-0.2-0.6-0.6-0.8-1.01c-0.2-0.4-0.2-0.8-0.4-1.41c0-0.4,0-1.01,0-1.41
			v-1.41H259.44z M250.39,180.93v-0.8c0-0.4,0-0.8,0-1.21c0.2-0.4,0.2-0.8,0.4-1.21c0.2-0.2,0.4-0.6,0.8-0.8
			c0.2-0.2,0.6-0.2,1.21-0.2c0.4,0,0.8,0,1.01,0.2c0.4,0.2,0.6,0.4,0.8,0.8c0.2,0.4,0.2,0.81,0.4,1.41c0,0.4,0,1.01,0,1.81H250.39z
			 M275.34,180.53c0-2.21-0.6-4.02-1.61-5.23c-1.21-1.21-2.82-1.81-4.83-1.81c-1.21,0-2.01,0.2-3.02,0.4
			c-0.8,0.4-1.61,0.8-2.21,1.61c-0.8,0.6-1.21,1.61-1.61,2.82c-0.4,1.21-0.6,2.82-0.6,4.63s0.2,3.42,0.6,4.63
			c0.2,1.21,0.6,2.21,1.21,2.82c0.6,0.8,1.21,1.21,2.21,1.61c0.8,0.2,1.81,0.4,3.02,0.4c2.41,0,4.23-0.6,5.23-1.81
			c1.01-1.41,1.61-3.22,1.61-5.43h-4.43c0,1.41-0.2,2.41-0.6,3.22c-0.4,0.6-0.8,1.01-1.61,1.01c-0.6,0-1.01-0.2-1.21-0.4
			c-0.4-0.2-0.6-0.6-0.8-1.21c-0.2-0.4-0.4-1.21-0.4-2.01c0-0.6-0.2-1.61-0.2-2.82c0-1.01,0.2-1.81,0.2-2.62
			c0-0.8,0.2-1.41,0.4-2.01c0.2-0.4,0.4-0.8,0.8-1.21c0.2-0.2,0.8-0.2,1.41-0.2c0.4,0,0.6,0,1.01,0.2c0.2,0.2,0.4,0.6,0.6,0.8
			c0.2,0.4,0.2,0.8,0.4,1.21c0,0.4,0,0.8,0,1.41H275.34z M279.17,173.89h-2.41v3.22h2.41v10.26c0,1.01,0,1.81,0.2,2.42
			c0,0.6,0.4,1.01,0.6,1.41c0.4,0.4,0.8,0.6,1.21,0.8c0.6,0.2,1.41,0.2,2.21,0.2c0.6,0,1.21,0,1.61,0c0.4-0.2,1.01-0.2,1.41-0.2
			v-3.22c0,0-0.2,0-0.4,0s-0.4,0-0.6,0c-0.6,0-1.01-0.2-1.21-0.4c-0.2-0.4-0.4-0.8-0.4-1.61v-9.66h2.62v-3.22h-2.62v-5.03h-4.63
			V173.89z M288.62,192h4.63v-10.87c0-0.6,0-1.01,0.2-1.61c0.2-0.4,0.4-0.6,0.8-1.01c0.4-0.2,0.8-0.4,1.21-0.4
			c0.4-0.2,0.8-0.2,1.21-0.2c0.2,0,0.4,0,0.6,0s0.4,0,0.8,0v-4.43c-0.2,0-0.4,0-0.4,0c-0.2,0-0.4,0-0.4,0c-1.01,0-1.81,0.2-2.62,0.8
			c-0.6,0.4-1.21,1.21-1.61,2.01l0,0v-2.41h-4.43V192z M299.89,187.17c0.2,1.21,0.6,2.21,1.21,3.02c0.4,0.8,1.21,1.41,2.01,1.61
			c1.01,0.4,2.21,0.6,3.62,0.6c1.21,0,2.41-0.2,3.22-0.6c1.01-0.4,1.61-1.01,2.21-1.81c0.6-0.8,1.01-1.81,1.21-3.02
			c0.2-1.01,0.4-2.41,0.4-4.02s-0.2-3.02-0.4-4.23c-0.2-1.01-0.6-2.01-1.01-2.82c-0.6-0.8-1.41-1.41-2.21-1.81
			c-1.01-0.4-2.21-0.6-3.42-0.6c-1.41,0-2.62,0.2-3.42,0.6c-1.01,0.4-1.61,1.01-2.21,1.81c-0.6,0.8-1.01,1.81-1.21,3.02
			c-0.2,1.21-0.4,2.41-0.4,4.02S299.69,185.96,299.89,187.17 M304.32,180.33c0-0.6,0-1.41,0.2-2.01c0.2-0.4,0.4-1.01,0.8-1.21
			c0.2-0.4,0.8-0.4,1.41-0.4c0.8,0,1.41,0.4,1.81,1.41c0.4,1.01,0.6,2.62,0.6,4.83c0,2.21-0.2,3.82-0.6,4.83
			c-0.4,1.01-1.01,1.61-1.81,1.61c-0.6,0-1.21-0.2-1.41-0.6c-0.4-0.2-0.6-0.6-0.8-1.21c-0.2-0.6-0.2-1.21-0.2-2.01
			c-0.2-0.8-0.2-1.61-0.2-2.62C304.12,182.14,304.12,181.13,304.32,180.33L304.32,180.33z M329.67,180.53c0-2.21-0.6-4.02-1.61-5.23
			c-1.21-1.21-2.82-1.81-4.83-1.81c-1.21,0-2.21,0.2-3.02,0.4c-0.8,0.4-1.61,0.8-2.41,1.61c-0.6,0.6-1.01,1.61-1.41,2.82
			c-0.4,1.21-0.6,2.82-0.6,4.63s0.2,3.42,0.4,4.63c0.4,1.21,0.8,2.21,1.41,2.82c0.6,0.8,1.21,1.21,2.21,1.61
			c0.8,0.2,1.81,0.4,3.02,0.4c2.41,0,4.23-0.6,5.23-1.81c1.01-1.41,1.61-3.22,1.61-5.43h-4.43c0,1.41-0.2,2.41-0.6,3.22
			c-0.4,0.6-0.8,1.01-1.61,1.01c-0.6,0-1.01-0.2-1.41-0.4c-0.2-0.2-0.4-0.6-0.6-1.21c-0.2-0.4-0.4-1.21-0.4-2.01
			c-0.2-0.6-0.2-1.61-0.2-2.82c0-1.01,0-1.81,0.2-2.62c0-0.8,0.2-1.41,0.4-2.01c0.2-0.4,0.4-0.8,0.8-1.21c0.2-0.2,0.8-0.2,1.21-0.2
			c0.6,0,0.8,0,1.21,0.2c0.2,0.2,0.4,0.6,0.6,0.8c0.2,0.4,0.2,0.8,0.2,1.21c0.2,0.4,0.2,0.8,0.2,1.41H329.67z M332.29,192h4.63
			v-12.07c0-1.81,0.8-2.82,2.41-2.82c0.8,0,1.21,0,1.61,0.4c0.2,0.4,0.4,1.01,0.4,2.01V192h4.63v-13.48c0-1.81-0.4-3.02-1.21-3.82
			c-0.8-0.8-2.01-1.21-3.42-1.21c-2.01,0-3.42,0.8-4.43,2.21l0,0v-7.65h-4.63V192z M362.48,183.75v-1.21c0-1.21-0.2-2.62-0.2-3.62
			c-0.2-1.21-0.6-2.21-1.01-3.02c-0.6-0.8-1.21-1.41-2.21-1.81c-0.8-0.4-1.81-0.6-3.22-0.6c-1.61,0-2.82,0.2-3.82,0.8
			c-0.8,0.4-1.61,1.21-2.01,2.01c-0.6,0.8-1.01,1.81-1.01,3.02c-0.2,1.01-0.4,2.21-0.4,3.42c0,1.21,0.2,2.21,0.2,3.42
			c0.2,1.21,0.4,2.21,0.8,3.22c0.4,0.8,1.21,1.61,2.21,2.21c0.8,0.6,2.21,0.8,3.82,0.8c2.21,0,3.82-0.6,4.83-1.61
			c1.01-1.21,1.61-2.82,1.81-4.83h-4.23c-0.2,1.01-0.4,2.01-0.8,2.41c-0.4,0.6-0.8,1.01-1.61,1.01c-0.4,0-0.8-0.2-1.21-0.4
			c-0.2-0.2-0.4-0.6-0.6-1.01s-0.4-0.8-0.4-1.41c0-0.4-0.2-1.01-0.2-1.41v-1.41H362.48z M353.22,180.93v-0.8c0-0.4,0.2-0.8,0.2-1.21
			s0.2-0.8,0.4-1.21c0.2-0.2,0.4-0.6,0.6-0.8c0.4-0.2,0.8-0.2,1.21-0.2c0.6,0,0.8,0,1.21,0.2c0.2,0.2,0.6,0.4,0.6,0.8
			c0.2,0.4,0.4,0.81,0.4,1.41c0.2,0.4,0.2,1.01,0.2,1.81H353.22z M365.09,192h4.63v-11.87c0-1.01,0.2-1.81,0.6-2.42
			c0.6-0.4,1.21-0.6,1.81-0.6s1.21,0.2,1.41,0.6c0.2,0.4,0.4,0.81,0.4,1.61V192h4.63v-11.87c0-1.01,0.2-1.81,0.6-2.42
			c0.6-0.4,1.21-0.6,1.81-0.6s1.21,0.2,1.41,0.6c0.2,0.4,0.4,0.81,0.4,1.61V192h4.63v-13.08c0-1.81-0.4-3.22-1.01-4.02
			c-0.8-1.01-1.81-1.41-3.42-1.41c-1.21,0-2.01,0.2-2.82,0.6c-0.8,0.6-1.41,1.21-1.81,2.21l0,0c-0.2-0.8-0.8-1.61-1.41-2.01
			c-0.8-0.6-1.61-0.8-2.82-0.8c-1.01,0-1.81,0.2-2.62,0.6c-0.6,0.2-1.41,0.8-1.81,1.61h-0.2v-1.81h-4.43V192z M390.85,171.68h4.63
			v-3.82h-4.63V171.68z M390.85,192h4.63v-18.11h-4.63V192z M411.98,180.53c0-2.21-0.4-4.02-1.61-5.23
			c-1.01-1.21-2.62-1.81-4.83-1.81c-1.01,0-2.01,0.2-3.02,0.4c-0.8,0.4-1.61,0.8-2.21,1.61c-0.6,0.6-1.21,1.61-1.61,2.82
			c-0.2,1.21-0.4,2.82-0.4,4.63s0,3.42,0.4,4.63c0.2,1.21,0.6,2.21,1.21,2.82c0.6,0.8,1.41,1.21,2.21,1.61
			c0.8,0.2,1.81,0.4,3.02,0.4c2.41,0,4.23-0.6,5.23-1.81c1.21-1.41,1.61-3.22,1.61-5.43h-4.43c0,1.41-0.2,2.41-0.4,3.22
			c-0.4,0.6-1.01,1.01-1.81,1.01c-0.6,0-1.01-0.2-1.21-0.4c-0.4-0.2-0.6-0.6-0.8-1.21c-0.2-0.4-0.2-1.21-0.4-2.01
			c0-0.6,0-1.61,0-2.82c0-1.01,0-1.81,0-2.62c0.2-0.8,0.2-1.41,0.4-2.01c0.2-0.4,0.4-0.8,0.8-1.21c0.4-0.2,0.8-0.2,1.41-0.2
			c0.4,0,0.8,0,1.01,0.2c0.4,0.2,0.6,0.6,0.6,0.8c0.2,0.4,0.4,0.8,0.4,1.21s0,0.8,0,1.41H411.98z M418.82,179.52v-0.6
			c0-0.6,0.2-1.21,0.6-1.61c0.2-0.4,0.8-0.6,1.61-0.6s1.21,0.2,1.61,0.4c0.4,0.4,0.4,1.01,0.4,1.81c0,0.6,0,1.01-0.4,1.21
			c-0.2,0.4-0.6,0.6-1.41,0.8l-2.62,0.8c-0.8,0.2-1.41,0.4-2.01,0.6c-0.6,0.4-1.01,0.81-1.41,1.21c-0.4,0.4-0.6,1.01-0.8,1.61
			c-0.2,0.6-0.2,1.21-0.2,2.21c0,0.6,0,1.21,0.2,1.81c0,0.6,0.4,1.01,0.6,1.61c0.4,0.4,0.8,0.8,1.41,1.21c0.6,0.2,1.21,0.4,2.01,0.4
			c1.21,0,2.01-0.2,2.82-0.4c0.6-0.4,1.21-1.01,1.81-1.81l0,0c0.2,0.2,0.2,0.6,0.2,0.8c0.2,0.4,0.2,0.6,0.4,1.01h4.43
			c-0.2-0.6-0.4-1.01-0.4-1.61c0-0.4-0.2-1.01-0.2-1.81v-9.66c0-0.8,0-1.41-0.2-2.21c-0.2-0.6-0.4-1.21-1.01-1.61
			c-0.4-0.6-1.01-1.01-2.01-1.21c-0.8-0.2-1.81-0.4-3.22-0.4c-0.8,0-1.81,0-2.41,0.2c-0.8,0.2-1.61,0.6-2.01,1.01
			c-0.6,0.4-1.01,1.01-1.41,1.81c-0.4,0.6-0.6,1.41-0.6,2.62v0.4H418.82z M423.05,186.57c0,0.4,0,0.8-0.2,1.21
			c-0.2,0.4-0.4,0.6-0.6,0.81c-0.4,0.4-0.6,0.4-1.01,0.6c-0.4,0-0.6,0.2-1.01,0.2c-0.6,0-1.01-0.4-1.21-0.8
			c-0.4-0.6-0.4-1.01-0.4-1.81c0-0.8,0.2-1.41,0.6-1.81c0.4-0.6,1.01-0.8,2.01-1.01c0.2-0.2,0.6-0.2,0.8-0.4
			c0.4-0.2,0.8-0.4,1.01-0.6V186.57z M431.1,192h4.63v-23.95h-4.63V192z M451.02,179.52v-0.6c0-0.6,0.2-1.21,0.6-1.61
			c0.4-0.4,0.8-0.6,1.61-0.6c0.8,0,1.41,0.2,1.61,0.4c0.4,0.4,0.6,1.01,0.6,1.81c0,0.6-0.2,1.01-0.4,1.21c-0.4,0.4-0.8,0.6-1.41,0.8
			l-2.62,0.8c-0.8,0.2-1.61,0.4-2.21,0.6c-0.6,0.4-1.01,0.81-1.41,1.21c-0.4,0.4-0.6,1.01-0.8,1.61c-0.2,0.6-0.2,1.21-0.2,2.21
			c0,0.6,0,1.21,0.2,1.81c0.2,0.6,0.4,1.01,0.8,1.61c0.2,0.4,0.8,0.8,1.21,1.21c0.6,0.2,1.41,0.4,2.21,0.4c1.01,0,2.01-0.2,2.62-0.4
			c0.8-0.4,1.41-1.01,1.81-1.81h0.2c0,0.2,0,0.6,0.2,0.8c0,0.4,0.2,0.6,0.4,1.01h4.43c-0.4-0.6-0.4-1.01-0.6-1.61
			c0-0.4,0-1.01,0-1.81v-9.66c0-0.8-0.2-1.41-0.4-2.21c0-0.6-0.4-1.21-0.8-1.61c-0.6-0.6-1.21-1.01-2.01-1.21
			c-1.01-0.2-2.01-0.4-3.42-0.4c-0.8,0-1.61,0-2.41,0.2c-0.8,0.2-1.41,0.6-2.01,1.01c-0.6,0.4-1.01,1.01-1.41,1.81
			c-0.2,0.6-0.4,1.41-0.4,2.62v0.4H451.02z M455.44,186.57c0,0.4-0.2,0.8-0.4,1.21c-0.2,0.4-0.4,0.6-0.6,0.81
			c-0.2,0.4-0.6,0.4-1.01,0.6c-0.2,0-0.6,0.2-0.8,0.2c-0.8,0-1.21-0.4-1.41-0.8c-0.2-0.6-0.4-1.01-0.4-1.81c0-0.8,0.2-1.41,0.6-1.81
			c0.4-0.6,1.01-0.8,2.01-1.01c0.2-0.2,0.6-0.2,1.01-0.4c0.2-0.2,0.6-0.4,1.01-0.6V186.57z M463.09,192h4.63v-12.07
			c0-1.81,0.8-2.82,2.62-2.82c0.6,0,1.21,0,1.41,0.4c0.4,0.4,0.4,1.01,0.4,2.01V192h4.63v-13.48c0-1.81-0.4-3.02-1.01-3.82
			c-0.8-0.8-2.01-1.21-3.42-1.21c-1.01,0-2.01,0.2-2.82,0.6c-0.8,0.4-1.41,1.01-1.81,2.01h-0.2v-2.21h-4.43V192z M489.45,192h4.43
			v-23.95h-4.63v7.65h-0.2c-0.4-0.8-1.01-1.41-1.61-1.61c-0.6-0.4-1.41-0.6-2.21-0.6c-1.81,0-3.22,0.8-4.23,2.21
			c-0.8,1.41-1.21,3.82-1.21,7.24s0.4,5.84,1.21,7.24c1.01,1.61,2.41,2.21,4.23,2.21c1.01,0,1.81-0.2,2.41-0.6
			c0.6-0.2,1.21-0.8,1.61-1.81h0.2V192z M484.82,178.52c0.2-1.01,1.01-1.41,2.01-1.41c1.01,0,1.61,0.4,2.01,1.41
			c0.2,1.01,0.4,2.41,0.4,4.43s-0.2,3.42-0.4,4.43c-0.4,1.01-1.01,1.61-2.01,1.61c-1.01,0-1.81-0.6-2.01-1.61
			c-0.4-1.01-0.4-2.41-0.4-4.43S484.42,179.52,484.82,178.52L484.82,178.52z M509.98,171.68h2.01c1.21,0,2.01,0.2,2.62,0.8
			c0.4,0.6,0.6,1.61,0.6,2.82s-0.2,2.21-0.8,2.62c-0.6,0.6-1.41,1.01-2.41,1.01h-2.01V171.68z M505.15,192h4.83v-9.66h2.62
			c1.01,0,2.01,0,3.02-0.4c1.01-0.2,1.81-0.6,2.41-1.21c0.6-0.6,1.21-1.41,1.61-2.21c0.4-1.01,0.4-2.01,0.4-3.22
			c0-1.01,0-1.81-0.2-2.82c-0.2-0.8-0.6-1.61-1.21-2.21c-0.4-0.6-1.21-1.21-2.01-1.61c-0.8-0.4-1.81-0.6-3.02-0.6h-8.45V192z
			 M522.25,187.17c0.2,1.21,0.6,2.21,1.21,3.02c0.4,0.8,1.21,1.41,2.01,1.61c1.01,0.4,2.21,0.6,3.62,0.6c1.21,0,2.41-0.2,3.22-0.6
			c1.01-0.4,1.61-1.01,2.21-1.81c0.6-0.8,1.01-1.81,1.21-3.02c0.2-1.01,0.4-2.41,0.4-4.02s-0.2-3.02-0.4-4.23
			c-0.2-1.01-0.6-2.01-1.01-2.82c-0.6-0.8-1.41-1.41-2.21-1.81c-1.01-0.4-2.21-0.6-3.42-0.6c-1.41,0-2.62,0.2-3.42,0.6
			c-1.01,0.4-1.61,1.01-2.21,1.81c-0.6,0.8-1.01,1.81-1.21,3.02c-0.2,1.21-0.4,2.41-0.4,4.02S522.05,185.96,522.25,187.17
			 M526.68,180.33c0-0.6,0-1.41,0.2-2.01c0.2-0.4,0.4-1.01,0.8-1.21c0.2-0.4,0.8-0.4,1.41-0.4c0.8,0,1.41,0.4,1.81,1.41
			c0.4,1.01,0.6,2.62,0.6,4.83c0,2.21-0.2,3.82-0.6,4.83c-0.4,1.01-1.01,1.61-1.81,1.61c-0.6,0-1.21-0.2-1.41-0.6
			c-0.4-0.2-0.6-0.6-0.8-1.21c-0.2-0.6-0.2-1.21-0.2-2.01c-0.2-0.8-0.2-1.61-0.2-2.62C526.48,182.14,526.48,181.13,526.68,180.33
			L526.68,180.33z M541.17,192h5.43l2.21-12.88l0,0l2.41,12.88h5.23l4.02-18.11h-4.43l-2.21,12.88l0,0l-2.41-12.88h-5.03
			l-2.21,12.88h-0.2l-2.01-12.88h-4.63L541.17,192z M575.38,183.75v-1.21c0-1.21-0.2-2.62-0.2-3.62c-0.2-1.21-0.6-2.21-1.01-3.02
			c-0.6-0.8-1.21-1.41-2.21-1.81c-0.8-0.4-1.81-0.6-3.22-0.6c-1.61,0-2.82,0.2-3.82,0.8c-0.8,0.4-1.61,1.21-2.01,2.01
			c-0.6,0.8-1.01,1.81-1.01,3.02c-0.2,1.01-0.4,2.21-0.4,3.42c0,1.21,0.2,2.21,0.2,3.42c0.2,1.21,0.4,2.21,0.8,3.22
			c0.4,0.8,1.21,1.61,2.21,2.21c0.8,0.6,2.21,0.8,3.82,0.8c2.21,0,3.82-0.6,4.83-1.61c1.01-1.21,1.61-2.82,1.81-4.83h-4.23
			c-0.2,1.01-0.4,2.01-0.8,2.41c-0.4,0.6-0.8,1.01-1.61,1.01c-0.4,0-0.8-0.2-1.21-0.4c-0.2-0.2-0.4-0.6-0.6-1.01s-0.4-0.8-0.4-1.41
			c0-0.4-0.2-1.01-0.2-1.41v-1.41H575.38z M566.12,180.93v-0.8c0-0.4,0.2-0.8,0.2-1.21s0.2-0.8,0.4-1.21c0.2-0.2,0.4-0.6,0.6-0.8
			c0.4-0.2,0.8-0.2,1.21-0.2c0.6,0,0.8,0,1.21,0.2c0.2,0.2,0.6,0.4,0.6,0.8c0.2,0.4,0.4,0.81,0.4,1.41c0.2,0.4,0.2,1.01,0.2,1.81
			H566.12z M577.99,192h4.63v-10.87c0-0.6,0.2-1.01,0.4-1.61c0.2-0.4,0.4-0.6,0.8-1.01c0.2-0.2,0.6-0.4,1.01-0.4
			c0.4-0.2,0.8-0.2,1.21-0.2c0.2,0,0.6,0,0.8,0s0.4,0,0.6,0v-4.43c0,0-0.2,0-0.4,0c0,0-0.2,0-0.4,0c-1.01,0-1.81,0.2-2.41,0.8
			c-0.6,0.4-1.21,1.21-1.61,2.01h-0.2v-2.41h-4.43V192"/>
		<path class="st3" d="M225.84,141.49v-0.6c0-0.6,0.2-1.21,0.6-1.61c0.4-0.4,0.8-0.6,1.61-0.6c0.8,0,1.21,0.2,1.61,0.6
			c0.4,0.2,0.4,0.8,0.4,1.61c0,0.6,0,1.01-0.4,1.21c-0.2,0.4-0.6,0.6-1.41,0.81l-2.62,0.8c-0.8,0.2-1.41,0.4-2.01,0.6
			c-0.6,0.4-1.01,0.8-1.41,1.21c-0.4,0.4-0.6,1.01-0.8,1.61c-0.2,0.6-0.2,1.21-0.2,2.21c0,0.6,0,1.21,0.2,1.81
			c0.2,0.6,0.4,1.01,0.6,1.61c0.4,0.4,0.8,0.8,1.41,1.21c0.6,0.2,1.21,0.4,2.01,0.4c1.21,0,2.01-0.2,2.82-0.4
			c0.6-0.4,1.21-1.01,1.81-1.81l0,0c0.2,0.2,0.2,0.6,0.2,0.81c0.2,0.4,0.2,0.6,0.4,1.01h4.43c-0.2-0.6-0.4-1.01-0.4-1.61
			c0-0.4-0.2-1.01-0.2-1.81v-9.66c0-0.8,0-1.41-0.2-2.21c-0.2-0.6-0.4-1.21-1.01-1.61c-0.4-0.6-1.01-1.01-2.01-1.21
			c-0.8-0.2-1.81-0.4-3.22-0.4c-0.8,0-1.81,0-2.41,0.2c-0.8,0.2-1.61,0.6-2.01,1.01c-0.6,0.4-1.01,1.01-1.41,1.81
			c-0.4,0.6-0.6,1.41-0.6,2.62v0.4H225.84z M230.07,148.54c0,0.4,0,0.8-0.2,1.21c-0.2,0.4-0.4,0.6-0.6,0.8
			c-0.4,0.4-0.6,0.4-1.01,0.6c-0.4,0-0.6,0.2-1.01,0.2c-0.6,0-1.01-0.4-1.21-0.8c-0.4-0.6-0.4-1.01-0.4-1.81
			c0-0.8,0.2-1.41,0.6-1.81c0.4-0.6,1.01-0.8,2.01-1.01c0.2-0.2,0.6-0.2,0.8-0.4c0.4-0.2,0.8-0.4,1.01-0.6V148.54z M237.91,153.97
			h4.63v-12.07c0-1.81,0.8-2.82,2.41-2.82c0.8,0,1.21,0.2,1.61,0.4c0.2,0.4,0.4,1.01,0.4,2.01v12.48h4.63v-13.48
			c0-1.81-0.4-3.02-1.21-3.82c-0.8-0.8-1.81-1.21-3.42-1.21c-1.01,0-1.81,0.2-2.62,0.6c-0.8,0.4-1.41,1.01-2.01,2.01l0,0v-2.21
			h-4.43V153.97z M264.27,153.97h4.43v-23.95h-4.63v7.65h-0.2c-0.4-0.8-1.01-1.41-1.61-1.61c-0.6-0.4-1.41-0.6-2.21-0.6
			c-2.01,0-3.42,0.8-4.23,2.21c-0.8,1.41-1.41,3.82-1.41,7.24s0.6,5.84,1.41,7.24c0.8,1.61,2.21,2.21,4.23,2.21
			c1.01,0,1.61-0.2,2.41-0.4c0.6-0.4,1.21-1.01,1.61-2.01h0.2V153.97z M259.65,140.49c0.2-1.01,0.8-1.41,1.81-1.41
			c1.01,0,1.81,0.4,2.01,1.41c0.4,1.01,0.6,2.42,0.6,4.43s-0.2,3.42-0.6,4.43c-0.2,1.01-1.01,1.61-2.01,1.61
			c-1.01,0-1.61-0.6-1.81-1.61c-0.4-1.01-0.6-2.41-0.6-4.43S259.24,141.49,259.65,140.49L259.65,140.49z M293.25,153.97v-4.02h-8.45
			v-19.92h-4.83v23.95H293.25z M295.67,133.64h4.63v-3.82h-4.63V133.64z M295.67,153.97h4.63v-18.11h-4.63V153.97z M304.72,153.97
			h4.63v-14.89h2.82v-3.22h-2.82v-1.61c0-0.4,0.2-0.8,0.4-1.01c0.4-0.2,0.8-0.4,1.41-0.4h0.4c0.2,0,0.4,0,0.6,0v-3.22
			c-1.01,0-1.81,0-2.62,0c-0.6,0-1.41,0-2.01,0.2c-0.6,0-1.01,0.4-1.41,0.6c-0.4,0.4-0.8,0.8-1.01,1.41c-0.2,0.6-0.4,1.21-0.4,2.01
			v2.01h-2.21v3.22h2.21V153.97z M327.26,145.72v-1.21c0-1.21-0.2-2.62-0.4-3.62c-0.2-1.21-0.4-2.21-1.01-3.02
			c-0.4-0.81-1.01-1.41-2.01-1.81c-0.8-0.4-1.81-0.6-3.22-0.6c-1.61,0-2.82,0.2-3.82,0.8c-0.8,0.4-1.61,1.21-2.21,2.01
			c-0.4,0.8-0.8,1.81-1.01,3.02c0,1.01-0.2,2.21-0.2,3.42s0,2.21,0.2,3.42c0,1.21,0.4,2.21,0.8,3.22c0.4,0.8,1.21,1.61,2.01,2.21
			c1.01,0.6,2.41,0.8,4.02,0.8c2.21,0,3.82-0.6,4.83-1.61c1.01-1.21,1.61-2.82,1.61-4.83h-4.02c-0.2,1.01-0.4,2.01-0.8,2.41
			c-0.4,0.6-1.01,1.01-1.61,1.01c-0.6,0-0.8-0.2-1.21-0.4c-0.2-0.2-0.4-0.6-0.6-1.01s-0.4-0.8-0.4-1.21c-0.2-0.6-0.2-1.21-0.2-1.61
			v-1.41H327.26z M318,142.9v-0.81c0-0.4,0-0.8,0.2-1.21c0-0.4,0.2-0.8,0.4-1.21c0.2-0.2,0.4-0.6,0.6-0.8c0.4-0.2,0.8-0.2,1.21-0.2
			s0.8,0,1.21,0.2c0.2,0.2,0.4,0.4,0.6,0.8c0.2,0.4,0.4,0.8,0.4,1.41c0,0.4,0.2,1.01,0.2,1.81H318z M331.08,135.86h-2.41v3.22h2.41
			v10.26c0,1.01,0,1.81,0,2.41c0.2,0.6,0.4,1.01,0.6,1.41c0.4,0.4,0.8,0.6,1.41,0.8c0.6,0.2,1.21,0.2,2.21,0.2c0.6,0,1.01,0,1.41,0
			c0.6-0.2,1.01-0.2,1.61-0.2v-3.22c-0.2,0-0.4,0-0.6,0s-0.2,0-0.4,0c-0.8,0-1.21,0-1.41-0.4c-0.2-0.2-0.2-0.8-0.2-1.61v-9.66h2.62
			v-3.22h-2.62v-5.03h-4.63V135.86z M340.54,133.64h4.63v-3.82h-4.63V133.64z M340.54,153.97h4.63v-18.11h-4.63V153.97z
			 M348.59,153.97h4.63V142.1c0-1.01,0.2-1.81,0.6-2.41c0.4-0.4,1.01-0.6,1.81-0.6c0.6,0,1.01,0.2,1.21,0.6
			c0.4,0.4,0.6,0.8,0.6,1.61v12.68h4.63V142.1c0-1.01,0.2-1.81,0.6-2.41c0.4-0.4,1.01-0.6,1.81-0.6c0.6,0,1.01,0.2,1.21,0.6
			c0.4,0.4,0.6,0.8,0.6,1.61v12.68h4.63v-13.08c0-1.81-0.4-3.22-1.21-4.02c-0.8-1.01-1.81-1.41-3.42-1.41c-1.01,0-2.01,0.2-2.82,0.8
			c-0.8,0.4-1.41,1.01-1.61,2.01h-0.2c-0.2-0.81-0.6-1.61-1.41-2.01c-0.8-0.6-1.61-0.8-2.62-0.8c-1.01,0-2.01,0.2-2.62,0.6
			c-0.8,0.2-1.41,0.8-2.01,1.61l0,0v-1.81h-4.43V153.97z M387.23,145.72v-1.21c0-1.21,0-2.62-0.2-3.62c-0.2-1.21-0.6-2.21-1.01-3.02
			c-0.4-0.81-1.21-1.41-2.01-1.81c-0.8-0.4-2.01-0.6-3.22-0.6c-1.61,0-2.82,0.2-3.82,0.8c-1.01,0.4-1.61,1.21-2.21,2.01
			c-0.4,0.8-0.8,1.81-1.01,3.02c-0.2,1.01-0.2,2.21-0.2,3.42s0,2.21,0.2,3.42c0,1.21,0.2,2.21,0.8,3.22c0.4,0.8,1.01,1.61,2.01,2.21
			c1.01,0.6,2.21,0.8,4.02,0.8c2.21,0,3.82-0.6,4.83-1.61c1.01-1.21,1.61-2.82,1.61-4.83h-4.23c0,1.01-0.4,2.01-0.6,2.41
			c-0.4,0.6-1.01,1.01-1.81,1.01c-0.4,0-0.8-0.2-1.01-0.4c-0.4-0.2-0.6-0.6-0.8-1.01c-0.2-0.4-0.2-0.8-0.4-1.21c0-0.6,0-1.21,0-1.61
			v-1.41H387.23z M378.17,142.9v-0.81c0-0.4,0-0.8,0-1.21c0.2-0.4,0.2-0.8,0.4-1.21c0.2-0.2,0.4-0.6,0.8-0.8
			c0.2-0.2,0.6-0.2,1.21-0.2c0.4,0,0.8,0,1.01,0.2c0.4,0.2,0.6,0.4,0.8,0.8s0.2,0.8,0.4,1.41c0,0.4,0,1.01,0,1.81H378.17z
			 M402.72,133.64h2.01c1.21,0,2.01,0.2,2.62,0.8c0.4,0.6,0.8,1.61,0.8,2.82s-0.4,2.21-1.01,2.62c-0.6,0.6-1.41,1.01-2.21,1.01
			h-2.21V133.64z M397.89,153.97h4.83v-9.66h2.62c1.21,0,2.21,0,3.02-0.4c1.01-0.2,1.81-0.6,2.41-1.21c0.8-0.6,1.21-1.41,1.61-2.21
			c0.4-1.01,0.6-2.01,0.6-3.22c0-1.01-0.2-1.81-0.4-2.62c-0.2-1.01-0.6-1.81-1.01-2.41c-0.6-0.6-1.21-1.21-2.21-1.61
			c-0.8-0.4-1.81-0.6-3.02-0.6h-8.45V153.97z M415.4,153.97h4.63V143.1c0-0.6,0-1.01,0.2-1.41c0.2-0.6,0.6-0.8,0.8-1.01
			c0.4-0.4,0.8-0.6,1.21-0.6c0.4-0.2,0.8-0.2,1.21-0.2c0.2,0,0.4,0,0.6,0c0.4,0,0.6,0,0.8,0v-4.43c-0.2,0-0.2,0-0.4,0
			c-0.2,0-0.2,0-0.4,0c-1.01,0-1.81,0.2-2.41,0.8c-0.8,0.4-1.21,1.21-1.81,2.01l0,0v-2.42h-4.43V153.97z M440.15,145.72v-1.21
			c0-1.21,0-2.62-0.2-3.62c-0.2-1.21-0.6-2.21-1.01-3.02c-0.6-0.81-1.21-1.41-2.01-1.81c-1.01-0.4-2.01-0.6-3.42-0.6
			c-1.61,0-2.82,0.2-3.82,0.8c-0.8,0.4-1.61,1.21-2.01,2.01c-0.6,0.8-0.8,1.81-1.01,3.02c-0.2,1.01-0.4,2.21-0.4,3.42
			s0.2,2.21,0.2,3.42c0.2,1.21,0.4,2.21,0.8,3.22c0.6,0.8,1.21,1.61,2.21,2.21c0.8,0.6,2.21,0.8,3.82,0.8c2.21,0,3.82-0.6,4.83-1.61
			c1.01-1.21,1.61-2.82,1.81-4.83h-4.23c-0.2,1.01-0.4,2.01-0.8,2.41c-0.2,0.6-0.8,1.01-1.61,1.01c-0.4,0-0.8-0.2-1.21-0.4
			c-0.2-0.2-0.4-0.6-0.6-1.01c-0.2-0.4-0.4-0.8-0.4-1.21c0-0.6-0.2-1.21-0.2-1.61v-1.41H440.15z M430.89,142.9v-0.81
			c0-0.4,0.2-0.8,0.2-1.21s0.2-0.8,0.4-1.21c0.2-0.2,0.4-0.6,0.8-0.8c0.2-0.2,0.6-0.2,1.01-0.2c0.6,0,1.01,0,1.21,0.2
			c0.4,0.2,0.6,0.4,0.8,0.8c0,0.4,0.2,0.8,0.2,1.41c0.2,0.4,0.2,1.01,0.2,1.81H430.89z M452.02,153.97h4.43v-23.95h-4.63v7.65l0,0
			c-0.6-0.8-1.01-1.41-1.61-1.61c-0.6-0.4-1.41-0.6-2.21-0.6c-2.01,0-3.42,0.8-4.23,2.21c-1.01,1.41-1.41,3.82-1.41,7.24
			s0.4,5.84,1.41,7.24c0.8,1.61,2.21,2.21,4.23,2.21c0.8,0,1.61-0.2,2.21-0.4c0.6-0.4,1.21-1.01,1.81-2.01l0,0V153.97z
			 M447.4,140.49c0.4-1.01,1.01-1.41,2.01-1.41c1.01,0,1.61,0.4,2.01,1.41c0.2,1.01,0.4,2.42,0.4,4.43s-0.2,3.42-0.4,4.43
			c-0.4,1.01-1.01,1.61-2.01,1.61c-1.01,0-1.61-0.6-2.01-1.61c-0.2-1.01-0.4-2.41-0.4-4.43S447.19,141.49,447.4,140.49L447.4,140.49
			z M459.87,133.64h4.63v-3.82h-4.63V133.64z M459.87,153.97h4.63v-18.11h-4.63V153.97z M481,142.5c0-2.21-0.4-4.02-1.61-5.23
			c-1.01-1.21-2.62-1.81-4.83-1.81c-1.01,0-2.01,0.2-2.82,0.4c-1.01,0.4-1.81,0.8-2.41,1.61c-0.6,0.6-1.21,1.61-1.41,2.82
			c-0.4,1.21-0.6,2.82-0.6,4.63c0,1.81,0.2,3.42,0.4,4.63c0.2,1.21,0.8,2.21,1.21,2.82c0.6,0.8,1.41,1.21,2.21,1.61
			c0.8,0.2,1.81,0.4,3.02,0.4c2.41,0,4.23-0.6,5.23-1.81c1.21-1.41,1.61-3.22,1.61-5.43h-4.43c0,1.41-0.2,2.42-0.4,3.22
			c-0.4,0.6-1.01,1.01-1.81,1.01c-0.4,0-0.8-0.2-1.21-0.4c-0.4-0.2-0.6-0.6-0.8-1.21c-0.2-0.4-0.2-1.21-0.4-1.81
			c0-0.81,0-1.81,0-3.02c0-1.01,0-1.81,0-2.62c0.2-0.8,0.2-1.41,0.4-2.01c0.2-0.4,0.4-0.8,0.8-1.01c0.4-0.4,0.8-0.4,1.41-0.4
			c0.4,0,0.8,0,1.01,0.2c0.4,0.2,0.6,0.6,0.6,0.8c0.2,0.4,0.4,0.8,0.4,1.21s0,0.8,0,1.41H481z M485.03,135.86h-2.41v3.22h2.41v10.26
			c0,1.01,0,1.81,0,2.41c0.2,0.6,0.4,1.01,0.6,1.41c0.4,0.4,0.8,0.6,1.41,0.8c0.6,0.2,1.21,0.2,2.21,0.2c0.6,0,1.01,0,1.41,0
			c0.6-0.2,1.01-0.2,1.61-0.2v-3.22c-0.2,0-0.4,0-0.6,0c-0.2,0-0.2,0-0.4,0c-0.8,0-1.21,0-1.41-0.4c-0.2-0.2-0.2-0.8-0.2-1.61v-9.66
			h2.62v-3.22h-2.62v-5.03h-4.63V135.86z M494.48,133.64h4.63v-3.82h-4.63V133.64z M494.48,153.97h4.63v-18.11h-4.63V153.97z
			 M502.33,149.14c0.2,1.21,0.6,2.21,1.01,3.02c0.6,0.81,1.41,1.41,2.21,1.81c1.01,0.2,2.01,0.4,3.42,0.4c1.41,0,2.41-0.2,3.42-0.6
			c0.8-0.4,1.61-1.01,2.21-1.81c0.6-0.8,1.01-1.81,1.21-3.02c0.2-1.01,0.4-2.41,0.4-4.02s-0.2-3.02-0.4-4.02
			c-0.2-1.21-0.6-2.21-1.21-3.02c-0.4-0.81-1.21-1.41-2.21-1.81c-0.8-0.4-2.01-0.6-3.42-0.6c-1.21,0-2.41,0.2-3.22,0.6
			c-1.01,0.4-1.61,1.01-2.21,1.81c-0.6,0.8-1.01,1.81-1.21,3.02c-0.2,1.21-0.4,2.42-0.4,4.02S501.93,147.93,502.33,149.14
			 M506.56,142.3c0-0.6,0.2-1.41,0.4-2.01c0.2-0.4,0.4-1.01,0.8-1.21c0.2-0.4,0.6-0.4,1.21-0.4c1.01,0,1.61,0.4,2.01,1.41
			c0.4,1.01,0.6,2.62,0.6,4.83c0,2.21-0.2,3.82-0.6,4.83c-0.4,1.01-1.01,1.61-2.01,1.61c-0.6,0-1.01-0.2-1.21-0.6
			c-0.4-0.2-0.6-0.6-0.8-1.21c-0.2-0.6-0.4-1.21-0.4-2.01c0-0.8,0-1.61,0-2.62C506.56,144.11,506.56,143.1,506.56,142.3
			L506.56,142.3z M518.83,153.97h4.63v-12.07c0-1.81,0.8-2.82,2.41-2.82c0.8,0,1.21,0.2,1.61,0.4c0.2,0.4,0.4,1.01,0.4,2.01v12.48
			h4.63v-13.48c0-1.81-0.4-3.02-1.21-3.82c-0.8-0.8-2.01-1.21-3.42-1.21c-1.01,0-1.81,0.2-2.62,0.6c-0.8,0.4-1.41,1.01-2.01,2.01
			l0,0v-2.21h-4.43V153.97z M543.38,149.14c0.2,1.21,0.6,2.21,1.21,3.02c0.4,0.81,1.21,1.41,2.01,1.81c1.01,0.2,2.21,0.4,3.62,0.4
			c1.21,0,2.41-0.2,3.22-0.6c1.01-0.4,1.61-1.01,2.21-1.81s1.01-1.81,1.21-3.02c0.2-1.01,0.4-2.41,0.4-4.02s-0.2-3.02-0.4-4.02
			c-0.2-1.21-0.6-2.21-1.01-3.02c-0.6-0.81-1.41-1.41-2.21-1.81c-1.01-0.4-2.01-0.6-3.42-0.6c-1.41,0-2.41,0.2-3.42,0.6
			c-0.8,0.4-1.61,1.01-2.21,1.81c-0.6,0.8-1.01,1.81-1.21,3.02c-0.2,1.21-0.4,2.42-0.4,4.02S543.18,147.93,543.38,149.14
			 M547.81,142.3c0-0.6,0-1.41,0.2-2.01c0.2-0.4,0.4-1.01,0.8-1.21c0.4-0.4,0.8-0.4,1.41-0.4c0.8,0,1.61,0.4,1.81,1.41
			c0.4,1.01,0.6,2.62,0.6,4.83c0,2.21-0.2,3.82-0.6,4.83c-0.2,1.01-1.01,1.61-1.81,1.61c-0.6,0-1.01-0.2-1.41-0.6
			c-0.4-0.2-0.6-0.6-0.8-1.21c-0.2-0.6-0.2-1.21-0.2-2.01c-0.2-0.8-0.2-1.61-0.2-2.62C547.61,144.11,547.61,143.1,547.81,142.3
			L547.81,142.3z M561.09,153.97h4.63v-14.89h2.62v-3.22h-2.62v-1.61c0-0.4,0-0.8,0.4-1.01c0.2-0.2,0.6-0.4,1.41-0.4h0.4
			c0.2,0,0.4,0,0.4,0v-3.22c-0.8,0-1.61,0-2.41,0s-1.41,0-2.01,0.2c-0.6,0-1.21,0.4-1.61,0.6c-0.4,0.4-0.6,0.8-1.01,1.41
			c-0.2,0.6-0.2,1.21-0.2,2.01v2.01h-2.41v3.22h2.41V153.97"/>
		<path class="st3" d="M236.91,100.04c0-0.8,0-1.81-0.2-2.82c0-1.01-0.4-1.81-0.8-2.82c-0.6-0.8-1.41-1.41-2.41-2.01
			c-0.8-0.6-2.21-0.8-4.02-0.8c-1.81,0-3.22,0.2-4.23,0.8c-1.21,0.6-2.01,1.61-2.62,2.62c-0.4,1.01-0.8,2.41-1.01,4.02
			c-0.2,1.41-0.2,3.02-0.2,4.83c0,1.81,0,3.62,0.2,5.03c0.2,1.61,0.6,3.02,1.01,4.02c0.6,1.01,1.41,2.01,2.62,2.62
			c1.01,0.6,2.41,0.8,4.23,0.8c1.61,0,3.02-0.2,3.82-0.8c1.01-0.4,1.81-1.21,2.41-2.01c0.6-0.8,1.01-1.81,1.21-3.02
			c0.2-1.21,0.2-2.41,0.2-3.82h-4.83c0,1.41,0,2.41-0.2,3.22c-0.2,0.8-0.4,1.41-0.6,1.81c-0.4,0.4-0.6,0.8-1.01,1.01
			c-0.4,0-0.8,0.2-1.21,0.2c-0.4,0-1.01-0.2-1.41-0.4c-0.4-0.2-0.6-0.6-1.01-1.21c-0.2-0.6-0.4-1.41-0.4-2.62
			c-0.2-1.21-0.2-2.62-0.2-4.43c0-1.61,0-3.02,0-4.23c0.2-1.21,0.4-2.21,0.6-2.82c0.2-0.8,0.4-1.41,0.8-1.61
			c0.4-0.4,1.01-0.6,1.61-0.6c1.01,0,1.81,0.4,2.21,1.21c0.4,0.8,0.6,2.01,0.6,3.82H236.91z M253.21,107.69v-1.21
			c0-1.21-0.2-2.62-0.2-3.62c-0.2-1.21-0.6-2.21-1.01-3.02c-0.6-0.8-1.21-1.41-2.21-1.81c-0.8-0.4-1.81-0.6-3.22-0.6
			c-1.61,0-2.82,0.2-3.82,0.8c-0.8,0.4-1.61,1.21-2.01,2.01c-0.6,0.8-1.01,1.81-1.01,3.02c-0.2,1.21-0.4,2.21-0.4,3.42
			c0,1.21,0.2,2.21,0.2,3.42c0.2,1.21,0.4,2.21,0.8,3.22c0.4,0.8,1.21,1.61,2.21,2.21c0.8,0.6,2.21,0.8,3.82,0.8
			c2.21,0,3.82-0.6,4.83-1.61c1.01-1.21,1.61-2.82,1.81-4.83h-4.23c-0.2,1.01-0.4,2.01-0.8,2.41c-0.4,0.6-0.8,1.01-1.61,1.01
			c-0.4,0-0.8-0.2-1.21-0.4c-0.2-0.2-0.4-0.6-0.6-1.01c-0.2-0.4-0.4-0.8-0.4-1.21c0-0.6-0.2-1.21-0.2-1.61v-1.41H253.21z
			 M243.95,104.87v-0.8c0-0.4,0.2-0.8,0.2-1.21c0-0.4,0.2-0.8,0.4-1.21c0.2-0.2,0.4-0.6,0.6-0.8c0.4-0.2,0.8-0.2,1.21-0.2
			c0.6,0,0.8,0,1.21,0.2c0.2,0.2,0.6,0.4,0.6,0.8c0.2,0.4,0.4,0.8,0.4,1.41c0.2,0.4,0.2,1.21,0.2,1.81H243.95z M255.82,115.94h4.63
			v-12.07c0-1.81,0.8-2.82,2.41-2.82c0.8,0,1.21,0.2,1.61,0.4c0.2,0.4,0.4,1.01,0.4,2.01v12.48h4.63v-13.48
			c0-1.81-0.4-3.02-1.21-3.82c-0.8-0.8-1.81-1.21-3.42-1.21c-1.01,0-1.81,0.2-2.62,0.6c-0.8,0.4-1.41,1.01-1.81,2.01h-0.2v-2.21
			h-4.43V115.94z M273.93,97.82h-2.41v3.22h2.41v10.26c0,1.01,0,1.81,0.2,2.41c0,0.6,0.2,1.01,0.6,1.41c0.2,0.4,0.8,0.6,1.21,0.8
			c0.6,0.2,1.41,0.2,2.21,0.2c0.6,0,1.01,0,1.61,0c0.4-0.2,1.01-0.2,1.41-0.2v-3.22c0,0-0.2,0-0.4,0s-0.4,0-0.6,0
			c-0.6,0-1.01,0-1.21-0.4c-0.4-0.2-0.4-0.8-0.4-1.61v-9.66h2.62v-3.22h-2.62v-5.03h-4.63V97.82z M296.47,107.69v-1.21
			c0-1.21-0.2-2.62-0.4-3.62c-0.2-1.21-0.4-2.21-1.01-3.02c-0.4-0.8-1.21-1.41-2.01-1.81c-0.8-0.4-2.01-0.6-3.22-0.6
			c-1.61,0-2.82,0.2-3.82,0.8c-1.01,0.4-1.61,1.21-2.21,2.01c-0.4,0.8-0.8,1.81-1.01,3.02c0,1.21-0.2,2.21-0.2,3.42
			c0,1.21,0,2.21,0.2,3.42c0,1.21,0.4,2.21,0.8,3.22c0.4,0.8,1.21,1.61,2.01,2.21c1.01,0.6,2.21,0.8,4.02,0.8
			c2.21,0,3.82-0.6,4.83-1.61c1.01-1.21,1.61-2.82,1.61-4.83h-4.02c-0.2,1.01-0.4,2.01-0.8,2.41c-0.4,0.6-1.01,1.01-1.81,1.01
			c-0.4,0-0.6-0.2-1.01-0.4c-0.2-0.2-0.6-0.6-0.6-1.01c-0.2-0.4-0.4-0.8-0.4-1.21c-0.2-0.6-0.2-1.21-0.2-1.61v-1.41H296.47z
			 M287.21,104.87v-0.8c0-0.4,0-0.8,0.2-1.21c0-0.4,0.2-0.8,0.4-1.21c0-0.2,0.4-0.6,0.6-0.8c0.4-0.2,0.8-0.2,1.21-0.2
			c0.4,0,0.8,0,1.21,0.2c0.2,0.2,0.4,0.4,0.6,0.8c0.2,0.4,0.4,0.8,0.4,1.41c0,0.4,0,1.21,0.2,1.81H287.21z M299.09,115.94h4.63
			v-10.87c0-0.6,0-1.01,0.2-1.41c0.2-0.6,0.6-0.8,0.8-1.01c0.4-0.4,0.8-0.6,1.21-0.6c0.4-0.2,0.8-0.2,1.21-0.2c0.2,0,0.4,0,0.8,0
			c0.2,0,0.4,0,0.6,0v-4.43c-0.2,0-0.2,0-0.4,0s-0.2,0-0.4,0c-1.01,0-1.81,0.2-2.41,0.8c-0.8,0.4-1.21,1.21-1.81,2.01l0,0v-2.41
			h-4.43V115.94z M319.21,115.94h4.63v-14.89h2.82v-3.22h-2.82v-1.61c0-0.4,0.2-0.8,0.4-1.01c0.4-0.2,0.8-0.4,1.41-0.4h0.4
			c0.2,0,0.4,0,0.6,0v-3.22c-0.8,0-1.81,0-2.62,0c-0.6,0-1.41,0-2.01,0.2c-0.6,0-1.01,0.4-1.41,0.6c-0.4,0.4-0.8,0.8-1.01,1.41
			c-0.2,0.6-0.4,1.21-0.4,2.01v2.01H317v3.22h2.21V115.94z M328.27,111.11c0.2,1.21,0.6,2.21,1.21,3.02c0.4,0.8,1.21,1.41,2.01,1.81
			c1.01,0.2,2.21,0.4,3.62,0.4c1.21,0,2.41-0.2,3.22-0.6c1.01-0.4,1.61-1.01,2.21-1.81s1.01-1.81,1.21-3.02
			c0.2-1.01,0.4-2.41,0.4-4.02c0-1.61-0.2-3.02-0.4-4.02c-0.2-1.21-0.6-2.21-1.01-3.02c-0.6-0.8-1.41-1.41-2.21-1.81
			c-1.01-0.4-2.01-0.6-3.42-0.6s-2.41,0.2-3.42,0.6c-0.8,0.4-1.61,1.01-2.21,1.81c-0.6,0.8-1.01,1.81-1.21,3.02
			c-0.2,1.21-0.4,2.41-0.4,4.02C327.86,108.49,328.07,109.9,328.27,111.11 M332.69,104.26c0-0.6,0-1.41,0.2-2.01
			c0.2-0.4,0.4-0.8,0.8-1.21c0.4-0.4,0.8-0.4,1.41-0.4c0.8,0,1.61,0.4,1.81,1.41c0.4,1.01,0.6,2.62,0.6,4.83
			c0,2.21-0.2,3.82-0.6,4.83c-0.2,1.01-1.01,1.61-1.81,1.61c-0.6,0-1.01-0.2-1.41-0.6c-0.4-0.2-0.6-0.6-0.8-1.21
			c-0.2-0.6-0.2-1.21-0.2-2.01c-0.2-0.8-0.2-1.61-0.2-2.62C332.49,106.08,332.49,105.07,332.69,104.26L332.69,104.26z
			 M344.77,115.94h4.63v-10.87c0-0.6,0.2-1.01,0.4-1.41c0.2-0.6,0.4-0.8,0.8-1.01c0.4-0.4,0.6-0.6,1.01-0.6
			c0.4-0.2,0.8-0.2,1.21-0.2s0.6,0,0.8,0s0.4,0,0.8,0v-4.43c-0.2,0-0.4,0-0.6,0c0,0-0.2,0-0.4,0c-0.8,0-1.61,0.2-2.41,0.8
			c-0.6,0.4-1.21,1.21-1.61,2.01h-0.2v-2.41h-4.43V115.94z M371.73,96.22h0.2l2.21,10.67h-4.63L371.73,96.22z M362.48,115.94h5.03
			l1.21-5.03h6.24l1.21,5.03h5.03l-6.44-23.95h-5.84L362.48,115.94z M387.03,104.47c0-0.8,0.2-1.61,0.4-2.01
			c0.2-0.6,0.4-1.01,0.8-1.21c0.2-0.2,0.6-0.2,1.21-0.2c0.8,0,1.41,0.4,1.81,1.21c0.4,1.01,0.6,2.62,0.6,4.83c0,0.6,0,1.41-0.2,2.01
			c0,0.6-0.2,1.21-0.4,1.61c-0.2,0.4-0.4,0.8-0.8,1.01c-0.2,0.4-0.6,0.4-1.21,0.4c-0.4,0-0.8,0-1.21-0.4c-0.2-0.2-0.4-0.6-0.6-1.01
			c-0.2-0.4-0.4-0.8-0.4-1.41c0-0.6,0-1.21,0-1.81C387.03,106.28,387.03,105.27,387.03,104.47 M391.86,97.82v2.01h-0.2
			c-0.4-0.8-1.01-1.61-1.61-1.81c-0.8-0.4-1.41-0.6-2.01-0.6c-1.21,0-2.21,0.2-3.02,0.8c-0.8,0.6-1.41,1.21-1.81,2.21
			c-0.2,0.8-0.6,1.81-0.6,3.02c-0.2,1.01-0.2,2.01-0.2,3.22c0,3.22,0.4,5.63,1.41,7.04c0.8,1.21,2.21,2.01,4.02,2.01
			c0.8,0,1.41-0.2,2.21-0.6c0.6-0.4,1.21-1.01,1.61-1.61h0.2v2.41c0,0.8-0.2,1.61-0.6,2.21c-0.4,0.6-1.01,1.01-2.01,1.01
			c-0.2,0-0.6,0-0.8-0.2c-0.2,0-0.4-0.2-0.8-0.4c-0.4-0.2-0.6-0.6-0.6-1.21h-4.43c0,1.41,0.6,2.62,1.61,3.42
			c1.01,1.01,2.62,1.41,4.43,1.41c2.82,0,4.63-0.6,5.84-1.81c1.21-1.21,1.81-3.02,1.81-5.43v-17.1H391.86z M412.78,107.69v-1.21
			c0-1.21,0-2.62-0.2-3.62c-0.2-1.21-0.6-2.21-1.01-3.02c-0.6-0.8-1.21-1.41-2.01-1.81c-0.8-0.4-2.01-0.6-3.42-0.6
			c-1.41,0-2.82,0.2-3.62,0.8c-1.01,0.4-1.61,1.21-2.21,2.01c-0.4,0.8-0.8,1.81-1.01,3.02c-0.2,1.21-0.2,2.21-0.2,3.42
			c0,1.21,0,2.21,0.2,3.42c0,1.21,0.2,2.21,0.8,3.22c0.4,0.8,1.01,1.61,2.01,2.21c1.01,0.6,2.21,0.8,3.82,0.8
			c2.21,0,3.82-0.6,5.03-1.61c1.01-1.21,1.41-2.82,1.61-4.83h-4.23c0,1.01-0.4,2.01-0.6,2.41c-0.4,0.6-1.01,1.01-1.81,1.01
			c-0.4,0-0.8-0.2-1.01-0.4c-0.4-0.2-0.6-0.6-0.8-1.01c-0.2-0.4-0.2-0.8-0.4-1.21c0-0.6,0-1.21,0-1.61v-1.41H412.78z M403.73,104.87
			v-0.8c0-0.4,0-0.8,0-1.21c0.2-0.4,0.2-0.8,0.4-1.21c0.2-0.2,0.4-0.6,0.8-0.8c0.2-0.2,0.6-0.2,1.21-0.2c0.4,0,0.8,0,1.01,0.2
			c0.4,0.2,0.6,0.4,0.8,0.8c0.2,0.4,0.2,0.8,0.4,1.41c0,0.4,0,1.21,0,1.81H403.73z M415.6,95.61h4.63v-3.82h-4.63V95.61z
			 M415.6,115.94h4.63V97.82h-4.63V115.94z M423.65,115.94h4.63v-12.07c0-1.81,0.8-2.82,2.41-2.82c0.6,0,1.21,0.2,1.61,0.4
			c0.2,0.4,0.4,1.01,0.4,2.01v12.48h4.63v-13.48c0-1.81-0.4-3.02-1.21-3.82c-0.8-0.8-2.01-1.21-3.42-1.21c-1.01,0-1.81,0.2-2.62,0.6
			c-0.8,0.4-1.41,1.01-2.01,2.01l0,0v-2.21h-4.43V115.94z M444.78,104.47c0.2-0.8,0.2-1.61,0.4-2.01c0.2-0.6,0.4-1.01,0.8-1.21
			c0.2-0.2,0.6-0.2,1.21-0.2c1.01,0,1.61,0.4,1.81,1.21c0.4,1.01,0.6,2.62,0.6,4.83c0,0.6,0,1.41-0.2,2.01c0,0.6-0.2,1.21-0.4,1.61
			c-0.2,0.4-0.4,0.8-0.6,1.01c-0.4,0.4-0.8,0.4-1.21,0.4c-0.6,0-1.01,0-1.21-0.4c-0.4-0.2-0.6-0.6-0.8-1.01
			c-0.2-0.4-0.2-0.8-0.4-1.41c0-0.6,0-1.21,0-1.81C444.78,106.28,444.78,105.27,444.78,104.47 M449.61,97.82v2.01l0,0
			c-0.6-0.8-1.01-1.61-1.81-1.81c-0.6-0.4-1.41-0.6-2.01-0.6c-1.21,0-2.21,0.2-3.02,0.8c-0.6,0.6-1.21,1.21-1.61,2.21
			c-0.4,0.8-0.6,1.81-0.8,3.02c-0.2,1.01-0.2,2.01-0.2,3.22c0,3.22,0.4,5.63,1.41,7.04c1.01,1.21,2.21,2.01,4.23,2.01
			c0.6,0,1.41-0.2,2.01-0.6c0.6-0.4,1.21-1.01,1.81-1.61l0,0v2.41c0,0.8-0.2,1.61-0.6,2.21c-0.4,0.6-1.01,1.01-2.01,1.01
			c-0.2,0-0.4,0-0.8-0.2c-0.2,0-0.4-0.2-0.6-0.4c-0.6-0.2-0.8-0.6-0.8-1.21h-4.43c0,1.41,0.6,2.62,1.61,3.42
			c1.01,1.01,2.62,1.41,4.63,1.41c2.62,0,4.63-0.6,5.63-1.81c1.21-1.21,1.81-3.02,1.81-5.43v-17.1H449.61z M457.66,110.7v5.23h1.81
			v0.6c0,0.6-0.2,1.21-0.4,1.61c-0.4,0.6-0.8,0.8-1.41,1.01v2.21c1.01,0,1.61-0.2,2.21-0.6c0.6-0.4,1.01-0.8,1.41-1.21
			c0.2-0.6,0.6-1.21,0.6-2.01c0.2-0.8,0.2-1.61,0.2-2.41v-4.43H457.66z M473.56,115.94h4.83v-10.06H481c1.01,0,1.81,0.2,2.21,0.8
			c0.4,0.4,0.6,1.21,0.6,2.21l0.2,4.43c0,0.6,0,1.01,0,1.41c0.2,0.4,0.4,0.8,0.6,1.21h5.23v-0.2c-0.4-0.2-0.8-0.8-0.8-1.41
			c-0.2-0.6-0.2-1.61-0.2-2.82c0-1.41-0.2-2.41-0.2-3.22c-0.2-1.01-0.4-1.61-0.6-2.21c-0.2-0.6-0.6-1.01-1.21-1.41
			c-0.4-0.2-1.01-0.4-1.81-0.6l0,0c1.21-0.2,2.21-1.01,3.02-2.01c0.6-1.01,0.8-2.21,0.8-3.82c0-2.21-0.4-3.62-1.61-4.63
			c-1.01-1.21-2.62-1.61-4.63-1.61h-9.06V115.94z M478.39,95.61h2.41c2.21,0,3.22,1.01,3.22,3.22c0,1.41-0.2,2.21-0.8,2.82
			c-0.6,0.6-1.61,0.8-2.82,0.8h-2.01V95.61z M505.35,107.69v-1.21c0-1.21,0-2.62-0.2-3.62c-0.2-1.21-0.6-2.21-1.01-3.02
			c-0.6-0.8-1.21-1.41-2.01-1.81c-1.01-0.4-2.01-0.6-3.42-0.6c-1.61,0-2.82,0.2-3.82,0.8c-0.8,0.4-1.61,1.21-2.01,2.01
			c-0.6,0.8-0.8,1.81-1.01,3.02c-0.2,1.21-0.4,2.21-0.4,3.42c0,1.21,0.2,2.21,0.2,3.42c0.2,1.21,0.4,2.21,0.8,3.22
			c0.6,0.8,1.21,1.61,2.21,2.21c0.8,0.6,2.21,0.8,3.82,0.8c2.21,0,3.82-0.6,4.83-1.61c1.01-1.21,1.61-2.82,1.81-4.83h-4.23
			c-0.2,1.01-0.4,2.01-0.8,2.41c-0.2,0.6-0.8,1.01-1.61,1.01c-0.4,0-0.8-0.2-1.21-0.4c-0.2-0.2-0.4-0.6-0.6-1.01
			c-0.2-0.4-0.4-0.8-0.4-1.21c0-0.6-0.2-1.21-0.2-1.61v-1.41H505.35z M496.09,104.87v-0.8c0-0.4,0.2-0.8,0.2-1.21
			c0-0.4,0.2-0.8,0.4-1.21c0.2-0.2,0.4-0.6,0.8-0.8c0.2-0.2,0.6-0.2,1.01-0.2c0.6,0,1.01,0,1.21,0.2c0.4,0.2,0.6,0.4,0.8,0.8
			c0,0.4,0.2,0.8,0.2,1.41c0.2,0.4,0.2,1.21,0.2,1.81H496.09z M508.17,115.94h4.63V91.99h-4.63V115.94z M516.22,95.61h4.63v-3.82
			h-4.63V95.61z M516.22,115.94h4.63V97.82h-4.63V115.94z M528.29,103.46v-0.6c0-0.6,0.2-1.21,0.6-1.61c0.4-0.4,0.8-0.6,1.61-0.6
			s1.21,0.2,1.61,0.6c0.4,0.2,0.6,0.8,0.6,1.61c0,0.6-0.2,1.01-0.4,1.21c-0.4,0.4-0.8,0.6-1.61,0.8l-2.62,0.8
			c-0.8,0.2-1.41,0.4-2.01,0.6c-0.6,0.4-1.01,0.8-1.41,1.21c-0.4,0.4-0.6,1.01-0.8,1.61c-0.2,0.6-0.2,1.21-0.2,2.21
			c0,0.6,0,1.21,0.2,1.81c0.2,0.6,0.4,1.21,0.8,1.61c0.2,0.4,0.6,0.8,1.21,1.21c0.6,0.4,1.21,0.4,2.01,0.4c1.21,0,2.01,0,2.82-0.4
			c0.6-0.4,1.41-1.01,1.81-1.81h0.2c0,0.2,0,0.6,0.2,0.8c0,0.4,0.2,0.6,0.2,1.01h4.43c-0.2-0.6-0.4-1.01-0.4-1.61
			c0-0.4,0-1.01,0-1.81v-9.66c0-0.8-0.2-1.41-0.4-2.21c-0.2-0.6-0.4-1.21-0.8-1.61c-0.6-0.6-1.21-1.01-2.01-1.21
			c-1.01-0.2-2.01-0.4-3.42-0.4c-0.8,0-1.61,0-2.41,0.2c-0.8,0.2-1.41,0.6-2.01,1.01c-0.6,0.4-1.01,1.01-1.41,1.81
			c-0.4,0.6-0.4,1.61-0.4,2.62v0.4H528.29z M532.72,110.5c0,0.4-0.2,0.8-0.4,1.21c-0.2,0.4-0.4,0.6-0.6,0.8
			c-0.4,0.4-0.6,0.4-1.01,0.6c-0.2,0-0.6,0.2-1.01,0.2c-0.6,0-1.01-0.4-1.21-0.8c-0.4-0.4-0.4-1.01-0.4-1.81s0.2-1.41,0.6-1.81
			c0.4-0.6,1.01-0.8,2.01-1.01c0.2-0.2,0.6-0.2,1.01-0.4c0.2-0.2,0.6-0.4,1.01-0.6V110.5z M540.36,115.94h4.43v-2.01h0.2
			c0.4,1.01,1.01,1.61,1.61,2.01c0.6,0.2,1.41,0.4,2.41,0.4c1.81,0,3.22-0.6,4.23-2.21c0.8-1.41,1.21-3.82,1.21-7.24
			c0-3.42-0.4-5.84-1.21-7.24c-1.01-1.41-2.41-2.21-4.23-2.21c-0.8,0-1.61,0.2-2.21,0.6c-0.6,0.2-1.21,0.8-1.61,1.61h-0.2v-7.65
			h-4.63V115.94z M545.6,102.45c0.2-1.01,0.8-1.41,1.81-1.41c1.01,0,1.81,0.4,2.01,1.41c0.4,1.01,0.4,2.41,0.4,4.43
			c0,2.01,0,3.42-0.4,4.43c-0.2,1.01-1.01,1.61-2.01,1.61c-1.01,0-1.61-0.6-1.81-1.61c-0.4-1.01-0.6-2.41-0.6-4.43
			C544.99,104.87,545.19,103.46,545.6,102.45L545.6,102.45z M557.47,95.61h4.63v-3.82h-4.63V95.61z M557.47,115.94h4.63V97.82h-4.63
			V115.94z M565.52,115.94h4.63V91.99h-4.63V115.94z M573.57,95.61h4.63v-3.82h-4.63V95.61z M573.57,115.94h4.63V97.82h-4.63V115.94
			z M582.82,97.82h-2.41v3.22h2.41v10.26c0,1.01,0,1.81,0,2.41c0.2,0.6,0.4,1.01,0.8,1.41c0.2,0.4,0.6,0.6,1.21,0.8
			c0.6,0.2,1.21,0.2,2.21,0.2c0.6,0,1.01,0,1.61,0c0.4-0.2,0.8-0.2,1.41-0.2v-3.22c-0.2,0-0.4,0-0.6,0c0,0-0.2,0-0.4,0
			c-0.8,0-1.21,0-1.41-0.4c-0.2-0.2-0.2-0.8-0.2-1.61v-9.66h2.62v-3.22h-2.62v-5.03h-4.63V97.82z M592.68,121.77h1.81
			c1.21,0,2.01,0,2.82-0.2c0.6-0.2,1.21-0.4,1.81-1.01c0.4-0.4,1.01-1.41,1.41-2.62c0.6-1.41,0.8-2.41,1.01-3.22l4.43-16.9h-4.63
			l-2.41,12.48l0,0l-2.82-12.48h-4.83l5.03,18.11c0,0.8-0.2,1.41-0.6,1.81c-0.4,0.6-1.01,0.8-1.81,0.8c-0.4,0-0.8-0.2-1.21-0.2
			V121.77"/>
		<path class="st4" d="M198.07,39.87C141.12,101.65,40.5,134.85,40.5,134.85v67.82c0-4.02,0.2-7.85,0.6-11.47
			c0.4-3.42,1.21-6.44,2.62-8.85c1.21-2.62,3.02-4.43,5.63-5.84c2.41-1.41,5.63-2.21,9.86-2.21c3.82,0,6.84,0.6,9.26,2.01
			c2.21,1.21,3.82,2.82,5.03,4.83c1.21,2.01,1.81,4.02,2.01,6.24c0.4,2.42,0.6,4.43,0.6,6.44H65.06c0-4.02-0.6-6.84-1.41-8.65
			c-1.01-1.81-2.62-2.62-5.23-2.62c-1.41,0-2.41,0.2-3.42,1.01c-0.8,0.8-1.61,2.01-2.01,3.62c-0.6,1.61-1.01,3.82-1.21,6.44
			c-0.2,2.82-0.2,6.04-0.2,9.86c0,4.23,0.2,7.45,0.4,10.06c0.2,2.41,0.8,4.43,1.21,5.84c0.6,1.41,1.41,2.41,2.41,2.82
			c0.8,0.6,1.81,0.8,3.02,0.8c1.01,0,1.81-0.2,2.62-0.6c1.01-0.2,1.61-0.8,2.21-1.81c0.6-1.01,1.21-2.41,1.41-4.23
			c0.4-1.81,0.6-4.23,0.6-7.24h11.07c0,3.02-0.2,5.84-0.8,8.45c-0.4,2.62-1.21,5.03-2.41,7.04c-1.41,2.01-3.02,3.62-5.43,4.63
			c-0.4,0.4-1.21,0.6-2.01,0.8h12.68l14.29-54.53h13.68L121,230.03h4.43V175.5h20.32c4.63,0,8.05,1.01,10.67,3.42
			c2.62,2.21,3.82,5.84,3.82,10.46c0,3.82-0.8,6.84-2.21,9.06c-1.41,2.41-3.82,3.82-6.84,4.43v0.2c1.81,0.2,3.42,0.8,4.43,1.41
			c1.21,0.8,2.01,1.81,2.62,3.02c0.6,1.21,1.01,3.02,1.21,5.03c0.2,1.81,0.4,4.43,0.4,7.24c0.2,2.82,0.2,5.03,0.6,6.64
			c0.2,1.61,0.8,2.62,2.01,3.22v0.4h5.03V175.5h11.07v45.48h19.52V39.87z M41.11,214.14c-0.4-3.42-0.6-7.24-0.6-11.47v27.37h11.67
			c-1.01-0.4-2.01-0.6-2.82-1.01c-2.62-1.41-4.43-3.42-5.63-5.84C42.32,220.58,41.51,217.56,41.11,214.14 M99.67,184.96l-5.23,24.55
			h10.67l-5.23-24.55H99.67z M106.91,218.56H92.42l-2.41,11.47h19.52L106.91,218.56z M149.17,227.42c-0.2-1.01-0.2-2.01-0.2-3.22
			l-0.4-10.46c0-2.01-0.6-3.82-1.61-5.03c-0.8-1.21-2.41-1.81-4.83-1.81h-5.84v23.14h14.09
			C149.77,229.23,149.37,228.42,149.17,227.42L149.17,227.42z M141.52,183.55h-5.23v15.7h4.63c2.62,0,4.63-0.6,6.24-1.81
			c1.41-1.21,2.01-3.42,2.01-6.44C149.17,185.96,146.76,183.55,141.52,183.55"/>
		<path class="st3" d="M76.12,193.81c0-2.01-0.2-4.02-0.6-6.44c-0.2-2.21-0.8-4.23-2.01-6.24c-1.21-2.01-2.82-3.62-5.03-4.83
			c-2.41-1.41-5.43-2.01-9.26-2.01c-4.23,0-7.45,0.8-9.86,2.21c-2.62,1.41-4.43,3.22-5.63,5.84c-1.41,2.42-2.21,5.43-2.62,8.85
			c-0.4,3.62-0.6,7.45-0.6,11.47c0,4.23,0.2,8.05,0.6,11.47c0.4,3.42,1.21,6.44,2.62,9.06c1.21,2.41,3.02,4.43,5.63,5.84
			c2.41,1.41,5.63,2.01,9.86,2.01c3.62,0,6.44-0.6,8.65-1.81c2.41-1.01,4.02-2.62,5.43-4.63c1.21-2.01,2.01-4.43,2.41-7.04
			c0.6-2.62,0.8-5.43,0.8-8.45H65.46c0,3.02-0.2,5.43-0.6,7.24c-0.2,1.81-0.8,3.22-1.41,4.23c-0.6,1.01-1.21,1.61-2.21,1.81
			c-0.8,0.4-1.61,0.6-2.62,0.6c-1.21,0-2.21-0.2-3.02-0.8c-1.01-0.4-1.81-1.41-2.41-2.82c-0.4-1.41-1.01-3.42-1.21-5.84
			c-0.2-2.62-0.4-5.84-0.4-10.06c0-3.82,0-7.04,0.2-9.86c0.2-2.62,0.6-4.83,1.21-6.44c0.4-1.61,1.21-2.82,2.01-3.62
			c1.01-0.81,2.01-1.01,3.42-1.01c2.62,0,4.23,0.8,5.23,2.62c0.8,1.81,1.41,4.63,1.41,8.65H76.12z M99.67,184.96h0.2l5.23,24.55
			H94.43L99.67,184.96z M78.54,230.03h11.47l2.41-11.47h14.49l2.62,11.47H121l-14.49-54.53H92.83L78.54,230.03z M125.42,230.03
			h10.87v-23.14h5.84c2.41,0,4.02,0.6,4.83,1.81c1.01,1.21,1.61,3.02,1.61,5.03l0.4,10.46c0,1.21,0,2.21,0.2,3.22
			s0.6,1.81,1.21,2.62h12.07v-0.4c-1.21-0.6-1.81-1.61-2.01-3.22c-0.4-1.61-0.4-3.82-0.6-6.64c0-2.82-0.2-5.43-0.4-7.45
			c-0.2-1.81-0.6-3.62-1.21-4.83c-0.6-1.21-1.41-2.21-2.62-3.02c-1.01-0.6-2.62-1.21-4.43-1.41v-0.2c3.02-0.6,5.43-2.01,6.84-4.43
			c1.41-2.21,2.21-5.23,2.21-9.06c0-4.63-1.21-8.25-3.82-10.46c-2.62-2.42-6.04-3.42-10.67-3.42h-20.32V230.03z M136.29,183.55h5.23
			c5.23,0,7.65,2.41,7.65,7.45c0,3.02-0.6,5.23-2.01,6.44c-1.61,1.21-3.62,1.81-6.24,1.81h-4.63V183.55z M198.07,230.03v-9.06
			h-19.52V175.5h-11.07v54.53H198.07"/>
	</g>
</g>
</svg>
