<svg width="1082" height="520" xmlns="http://www.w3.org/2000/svg" xmlns:xlink="http://www.w3.org/1999/xlink" xml:space="preserve" overflow="hidden"><g transform="translate(-880 -932)"><text fill="#00549F" font-family="Arial,Arial_MSFontService,sans-serif" font-weight="400" font-size="248" transform="matrix(1 0 0 1 1029.33 1247)">ICPD</text><path d="M1644 1033.25C1644 1042.22 1673.1 1049.5 1709 1049.5 1744.9 1049.5 1774 1042.22 1774 1033.25L1774 1306.75C1774 1315.72 1744.9 1323 1709 1323 1673.1 1323 1644 1315.72 1644 1306.75Z" fill="#FFFFFF" fill-rule="evenodd"/><path d="M1644 1033.25C1644 1024.28 1673.1 1017 1709 1017 1744.9 1017 1774 1024.28 1774 1033.25 1774 1042.22 1744.9 1049.5 1709 1049.5 1673.1 1049.5 1644 1042.22 1644 1033.25Z" fill="#FFFFFF" fill-rule="evenodd"/><path d="M1774 1033.25C1774 1042.22 1744.9 1049.5 1709 1049.5 1673.1 1049.5 1644 1042.22 1644 1033.25 1644 1024.28 1673.1 1017 1709 1017 1744.9 1017 1774 1024.28 1774 1033.25L1774 1306.75C1774 1315.72 1744.9 1323 1709 1323 1673.1 1323 1644 1315.72 1644 1306.75L1644 1033.25" stroke="#00549F" stroke-width="13.75" stroke-miterlimit="8" fill="none" fill-rule="evenodd"/><path d="M1695.5 1021C1695.5 1022.38 1701.32 1023.5 1708.5 1023.5 1715.68 1023.5 1721.5 1022.38 1721.5 1021L1721.5 1036C1721.5 1037.38 1715.68 1038.5 1708.5 1038.5 1701.32 1038.5 1695.5 1037.38 1695.5 1036Z" fill="#CC071E" fill-rule="evenodd"/><path d="M1695.5 1021C1695.5 1019.62 1701.32 1018.5 1708.5 1018.5 1715.68 1018.5 1721.5 1019.62 1721.5 1021 1721.5 1022.38 1715.68 1023.5 1708.5 1023.5 1701.32 1023.5 1695.5 1022.38 1695.5 1021Z" fill="#E06A78" fill-rule="evenodd"/><path d="M1721.5 1021C1721.5 1022.38 1715.68 1023.5 1708.5 1023.5 1701.32 1023.5 1695.5 1022.38 1695.5 1021 1695.5 1019.62 1701.32 1018.5 1708.5 1018.5 1715.68 1018.5 1721.5 1019.62 1721.5 1021L1721.5 1036C1721.5 1037.38 1715.68 1038.5 1708.5 1038.5 1701.32 1038.5 1695.5 1037.38 1695.5 1036L1695.5 1021" stroke="#CC071E" stroke-width="4.58333" stroke-miterlimit="8" fill="none" fill-rule="evenodd"/><path d="M1752.5 1103.25C1752.5 1105.32 1732.8 1107 1708.5 1107 1684.2 1107 1664.5 1105.32 1664.5 1103.25 1664.5 1101.18 1684.2 1099.5 1708.5 1099.5 1732.8 1099.5 1752.5 1101.18 1752.5 1103.25L1752.5 1125.75C1752.5 1127.82 1732.8 1129.5 1708.5 1129.5 1684.2 1129.5 1664.5 1127.82 1664.5 1125.75L1664.5 1103.25" stroke="#0098A1" stroke-width="4.58333" stroke-miterlimit="8" fill="none" fill-rule="evenodd"/><path d="M1752.5 1133.25C1752.5 1135.32 1732.8 1137 1708.5 1137 1684.2 1137 1664.5 1135.32 1664.5 1133.25 1664.5 1131.18 1684.2 1129.5 1708.5 1129.5 1732.8 1129.5 1752.5 1131.18 1752.5 1133.25L1752.5 1155.75C1752.5 1157.82 1732.8 1159.5 1708.5 1159.5 1684.2 1159.5 1664.5 1157.82 1664.5 1155.75L1664.5 1133.25" stroke="#0098A1" stroke-width="4.58333" stroke-miterlimit="8" fill="none" fill-rule="evenodd"/><path d="M1752.5 1163.25C1752.5 1165.32 1732.8 1167 1708.5 1167 1684.2 1167 1664.5 1165.32 1664.5 1163.25 1664.5 1161.18 1684.2 1159.5 1708.5 1159.5 1732.8 1159.5 1752.5 1161.18 1752.5 1163.25L1752.5 1185.75C1752.5 1187.82 1732.8 1189.5 1708.5 1189.5 1684.2 1189.5 1664.5 1187.82 1664.5 1185.75L1664.5 1163.25" stroke="#0098A1" stroke-width="4.58333" stroke-miterlimit="8" fill="none" fill-rule="evenodd"/><path d="M1708 1189 1708 1232.46" stroke="#00549F" stroke-width="2.29167" stroke-miterlimit="8" fill="none" fill-rule="evenodd"/><path d="M0 0 31.2583 0.955282" stroke="#00549F" stroke-width="2.29167" stroke-miterlimit="8" fill="none" fill-rule="evenodd" transform="matrix(1 0 0 -1 1677 1232.96)"/><path d="M1678 1233 1678.03 1252.1" stroke="#00549F" stroke-width="2.29167" stroke-miterlimit="8" fill="none" fill-rule="evenodd"/><path d="M1708 1233 1708.03 1252.1" stroke="#00549F" stroke-width="2.29167" stroke-miterlimit="8" fill="none" fill-rule="evenodd"/><path d="M1739 1232 1739.03 1251.1" stroke="#00549F" stroke-width="2.29167" stroke-miterlimit="8" fill="none" fill-rule="evenodd"/><path d="M1708 1232 1739.96 1232" stroke="#00549F" stroke-width="2.29167" stroke-miterlimit="8" fill="none" fill-rule="evenodd"/><path d="M1669.5 1263.5C1669.5 1258.53 1673.08 1254.5 1677.5 1254.5 1681.92 1254.5 1685.5 1258.53 1685.5 1263.5 1685.5 1268.47 1681.92 1272.5 1677.5 1272.5 1673.08 1272.5 1669.5 1268.47 1669.5 1263.5Z" stroke="#0098A1" stroke-width="4.58333" stroke-miterlimit="8" fill="none" fill-rule="evenodd"/><path d="M1699.5 1262C1699.5 1256.75 1703.31 1252.5 1708 1252.5 1712.69 1252.5 1716.5 1256.75 1716.5 1262 1716.5 1267.25 1712.69 1271.5 1708 1271.5 1703.31 1271.5 1699.5 1267.25 1699.5 1262Z" stroke="#0098A1" stroke-width="4.58333" stroke-miterlimit="8" fill="none" fill-rule="evenodd"/><path d="M1730.5 1262C1730.5 1256.75 1734.31 1252.5 1739 1252.5 1743.69 1252.5 1747.5 1256.75 1747.5 1262 1747.5 1267.25 1743.69 1271.5 1739 1271.5 1734.31 1271.5 1730.5 1267.25 1730.5 1262Z" stroke="#0098A1" stroke-width="4.58333" stroke-miterlimit="8" fill="none" fill-rule="evenodd"/></g></svg>